<mxfile host="app.diagrams.net" modified="2024-05-22T01:17:44.665Z" agent="Mozilla/5.0 (Windows NT 10.0; Win64; x64) AppleWebKit/537.36 (KHTML, like Gecko) Chrome/124.0.0.0 Safari/537.36" etag="xzqut8aDEWtYqw9uaZqY" version="24.4.3" type="device">
  <diagram name="Page-1" id="MdN1DUDBZdww9PVPYWuZ">
    <mxGraphModel dx="463" dy="1435" grid="1" gridSize="10" guides="1" tooltips="1" connect="1" arrows="1" fold="1" page="1" pageScale="1" pageWidth="827" pageHeight="1169" math="0" shadow="0">
      <root>
        <mxCell id="0" />
        <mxCell id="1" parent="0" />
        <mxCell id="5RgwJIrfcoMz2KBDrHFr-7" value="" style="rounded=0;whiteSpace=wrap;html=1;fillColor=none;dashed=1;" vertex="1" parent="1">
          <mxGeometry x="353" y="-24" width="541.5" height="222" as="geometry" />
        </mxCell>
        <mxCell id="68eKDMC-bbN40P5mF94e-356" value="" style="rounded=0;whiteSpace=wrap;html=1;fillColor=none;dashed=1;" parent="1" vertex="1">
          <mxGeometry x="353.5" y="233" width="541.5" height="257" as="geometry" />
        </mxCell>
        <mxCell id="68eKDMC-bbN40P5mF94e-359" value="" style="rounded=0;whiteSpace=wrap;html=1;fillColor=none;dashed=1;" parent="1" vertex="1">
          <mxGeometry x="24.5" y="520" width="1035.5" height="400" as="geometry" />
        </mxCell>
        <mxCell id="I69gD_4dZlkaCYN15ihD-1" value="simulationType" style="text;html=1;align=left;verticalAlign=middle;whiteSpace=wrap;rounded=0;" parent="1" vertex="1">
          <mxGeometry x="424" y="835" width="90" height="30" as="geometry" />
        </mxCell>
        <mxCell id="I69gD_4dZlkaCYN15ihD-2" value="validCoordinate" style="text;html=1;align=left;verticalAlign=middle;whiteSpace=wrap;rounded=0;" parent="1" vertex="1">
          <mxGeometry x="369.25" y="28" width="90" height="30" as="geometry" />
        </mxCell>
        <mxCell id="I69gD_4dZlkaCYN15ihD-3" value="particlePos" style="text;html=1;align=left;verticalAlign=middle;whiteSpace=wrap;rounded=0;" parent="1" vertex="1">
          <mxGeometry x="368.5" y="110" width="100" height="30" as="geometry" />
        </mxCell>
        <mxCell id="I69gD_4dZlkaCYN15ihD-9" value="" style="endArrow=none;html=1;rounded=0;" parent="1" edge="1">
          <mxGeometry width="50" height="50" relative="1" as="geometry">
            <mxPoint x="424" y="860" as="sourcePoint" />
            <mxPoint x="704" y="860" as="targetPoint" />
          </mxGeometry>
        </mxCell>
        <mxCell id="I69gD_4dZlkaCYN15ihD-15" value="Liquid" style="ellipse;whiteSpace=wrap;html=1;fillColor=default;fontSize=11;" parent="1" vertex="1">
          <mxGeometry x="594" y="850" width="40" height="20" as="geometry" />
        </mxCell>
        <mxCell id="I69gD_4dZlkaCYN15ihD-19" value="" style="endArrow=none;html=1;rounded=0;" parent="1" source="I69gD_4dZlkaCYN15ihD-20" edge="1">
          <mxGeometry width="50" height="50" relative="1" as="geometry">
            <mxPoint x="34.5" y="58" as="sourcePoint" />
            <mxPoint x="314.5" y="58" as="targetPoint" />
          </mxGeometry>
        </mxCell>
        <mxCell id="I69gD_4dZlkaCYN15ihD-21" value="" style="endArrow=none;html=1;rounded=0;" parent="1" target="I69gD_4dZlkaCYN15ihD-20" edge="1">
          <mxGeometry width="50" height="50" relative="1" as="geometry">
            <mxPoint x="34.5" y="58" as="sourcePoint" />
            <mxPoint x="314.5" y="58" as="targetPoint" />
          </mxGeometry>
        </mxCell>
        <mxCell id="I69gD_4dZlkaCYN15ihD-30" value="Digit" style="text;html=1;align=left;verticalAlign=middle;whiteSpace=wrap;rounded=0;" parent="1" vertex="1">
          <mxGeometry x="34.5" y="28" width="90" height="30" as="geometry" />
        </mxCell>
        <mxCell id="I69gD_4dZlkaCYN15ihD-32" value="" style="curved=1;endArrow=none;html=1;rounded=0;endFill=0;" parent="1" edge="1">
          <mxGeometry width="50" height="50" relative="1" as="geometry">
            <mxPoint x="154.5" y="258" as="sourcePoint" />
            <mxPoint x="154.5" y="68" as="targetPoint" />
            <Array as="points" />
          </mxGeometry>
        </mxCell>
        <mxCell id="I69gD_4dZlkaCYN15ihD-34" value="" style="curved=1;endArrow=none;html=1;rounded=0;endFill=0;" parent="1" edge="1">
          <mxGeometry width="50" height="50" relative="1" as="geometry">
            <mxPoint x="194.5" y="258" as="sourcePoint" />
            <mxPoint x="194.5" y="68" as="targetPoint" />
            <Array as="points" />
          </mxGeometry>
        </mxCell>
        <mxCell id="I69gD_4dZlkaCYN15ihD-35" value="" style="curved=1;endArrow=none;html=1;rounded=0;endFill=0;" parent="1" edge="1">
          <mxGeometry width="50" height="50" relative="1" as="geometry">
            <mxPoint x="194.5" y="258" as="sourcePoint" />
            <mxPoint x="154.5" y="258" as="targetPoint" />
            <Array as="points">
              <mxPoint x="174.5" y="290" />
            </Array>
          </mxGeometry>
        </mxCell>
        <mxCell id="I69gD_4dZlkaCYN15ihD-36" value="" style="curved=1;endArrow=none;html=1;rounded=0;endFill=0;" parent="1" edge="1">
          <mxGeometry width="50" height="50" relative="1" as="geometry">
            <mxPoint x="194.5" y="231" as="sourcePoint" />
            <mxPoint x="154.5" y="231" as="targetPoint" />
            <Array as="points">
              <mxPoint x="174.5" y="263" />
            </Array>
          </mxGeometry>
        </mxCell>
        <mxCell id="I69gD_4dZlkaCYN15ihD-37" value="" style="curved=1;endArrow=none;html=1;rounded=0;endFill=0;" parent="1" edge="1">
          <mxGeometry width="50" height="50" relative="1" as="geometry">
            <mxPoint x="194.5" y="205" as="sourcePoint" />
            <mxPoint x="154.5" y="205" as="targetPoint" />
            <Array as="points">
              <mxPoint x="174.5" y="237" />
            </Array>
          </mxGeometry>
        </mxCell>
        <mxCell id="I69gD_4dZlkaCYN15ihD-38" value="" style="curved=1;endArrow=none;html=1;rounded=0;endFill=0;" parent="1" edge="1">
          <mxGeometry width="50" height="50" relative="1" as="geometry">
            <mxPoint x="194.5" y="178" as="sourcePoint" />
            <mxPoint x="154.5" y="178" as="targetPoint" />
            <Array as="points">
              <mxPoint x="174.5" y="210" />
            </Array>
          </mxGeometry>
        </mxCell>
        <mxCell id="I69gD_4dZlkaCYN15ihD-39" value="" style="curved=1;endArrow=none;html=1;rounded=0;endFill=0;" parent="1" edge="1">
          <mxGeometry width="50" height="50" relative="1" as="geometry">
            <mxPoint x="194.5" y="150" as="sourcePoint" />
            <mxPoint x="154.5" y="150" as="targetPoint" />
            <Array as="points">
              <mxPoint x="174.5" y="182" />
            </Array>
          </mxGeometry>
        </mxCell>
        <mxCell id="I69gD_4dZlkaCYN15ihD-40" value="" style="curved=1;endArrow=none;html=1;rounded=0;endFill=0;" parent="1" edge="1">
          <mxGeometry width="50" height="50" relative="1" as="geometry">
            <mxPoint x="194.5" y="123" as="sourcePoint" />
            <mxPoint x="154.5" y="123" as="targetPoint" />
            <Array as="points">
              <mxPoint x="174.5" y="155" />
            </Array>
          </mxGeometry>
        </mxCell>
        <mxCell id="I69gD_4dZlkaCYN15ihD-41" value="" style="curved=1;endArrow=none;html=1;rounded=0;endFill=0;" parent="1" edge="1">
          <mxGeometry width="50" height="50" relative="1" as="geometry">
            <mxPoint x="194.5" y="97" as="sourcePoint" />
            <mxPoint x="154.5" y="97" as="targetPoint" />
            <Array as="points">
              <mxPoint x="174.5" y="129" />
            </Array>
          </mxGeometry>
        </mxCell>
        <mxCell id="I69gD_4dZlkaCYN15ihD-42" value="" style="curved=1;endArrow=none;html=1;rounded=0;endFill=0;" parent="1" edge="1">
          <mxGeometry width="50" height="50" relative="1" as="geometry">
            <mxPoint x="194.5" y="70" as="sourcePoint" />
            <mxPoint x="154.5" y="70" as="targetPoint" />
            <Array as="points">
              <mxPoint x="174.5" y="102" />
            </Array>
          </mxGeometry>
        </mxCell>
        <mxCell id="I69gD_4dZlkaCYN15ihD-43" value="" style="curved=1;endArrow=none;html=1;rounded=0;endFill=0;" parent="1" edge="1">
          <mxGeometry width="50" height="50" relative="1" as="geometry">
            <mxPoint x="214.5" y="58" as="sourcePoint" />
            <mxPoint x="194.5" y="68" as="targetPoint" />
            <Array as="points">
              <mxPoint x="194.5" y="58" />
            </Array>
          </mxGeometry>
        </mxCell>
        <mxCell id="I69gD_4dZlkaCYN15ihD-45" value="" style="curved=1;endArrow=none;html=1;rounded=0;endFill=0;" parent="1" edge="1">
          <mxGeometry width="50" height="50" relative="1" as="geometry">
            <mxPoint x="134.5000000000001" y="58" as="sourcePoint" />
            <mxPoint x="154.5000000000001" y="68" as="targetPoint" />
            <Array as="points">
              <mxPoint x="154.5000000000001" y="58" />
            </Array>
          </mxGeometry>
        </mxCell>
        <mxCell id="I69gD_4dZlkaCYN15ihD-20" value="1" style="ellipse;whiteSpace=wrap;html=1;fillColor=default;fontSize=11;" parent="1" vertex="1">
          <mxGeometry x="164.5" y="48" width="20" height="20" as="geometry" />
        </mxCell>
        <mxCell id="I69gD_4dZlkaCYN15ihD-22" value="2" style="ellipse;whiteSpace=wrap;html=1;fillColor=default;fontSize=11;" parent="1" vertex="1">
          <mxGeometry x="164.5" y="75" width="20" height="20" as="geometry" />
        </mxCell>
        <mxCell id="I69gD_4dZlkaCYN15ihD-23" value="3" style="ellipse;whiteSpace=wrap;html=1;fillColor=default;fontSize=11;" parent="1" vertex="1">
          <mxGeometry x="164.5" y="102" width="20" height="20" as="geometry" />
        </mxCell>
        <mxCell id="I69gD_4dZlkaCYN15ihD-24" value="4" style="ellipse;whiteSpace=wrap;html=1;fillColor=default;fontSize=11;" parent="1" vertex="1">
          <mxGeometry x="164.5" y="129" width="20" height="20" as="geometry" />
        </mxCell>
        <mxCell id="I69gD_4dZlkaCYN15ihD-25" value="5" style="ellipse;whiteSpace=wrap;html=1;fillColor=default;fontSize=11;" parent="1" vertex="1">
          <mxGeometry x="164.5" y="156" width="20" height="20" as="geometry" />
        </mxCell>
        <mxCell id="I69gD_4dZlkaCYN15ihD-26" value="6" style="ellipse;whiteSpace=wrap;html=1;fillColor=default;fontSize=11;" parent="1" vertex="1">
          <mxGeometry x="164.5" y="183" width="20" height="20" as="geometry" />
        </mxCell>
        <mxCell id="I69gD_4dZlkaCYN15ihD-27" value="7" style="ellipse;whiteSpace=wrap;html=1;fillColor=default;fontSize=11;" parent="1" vertex="1">
          <mxGeometry x="164.5" y="210" width="20" height="20" as="geometry" />
        </mxCell>
        <mxCell id="I69gD_4dZlkaCYN15ihD-28" value="8" style="ellipse;whiteSpace=wrap;html=1;fillColor=default;fontSize=11;" parent="1" vertex="1">
          <mxGeometry x="164.5" y="237" width="20" height="20" as="geometry" />
        </mxCell>
        <mxCell id="I69gD_4dZlkaCYN15ihD-29" value="9" style="ellipse;whiteSpace=wrap;html=1;fillColor=default;fontSize=11;" parent="1" vertex="1">
          <mxGeometry x="164.5" y="264" width="20" height="20" as="geometry" />
        </mxCell>
        <mxCell id="I69gD_4dZlkaCYN15ihD-46" value="" style="endArrow=none;html=1;rounded=0;entryX=0;entryY=0.5;entryDx=0;entryDy=0;" parent="1" target="I69gD_4dZlkaCYN15ihD-53" edge="1">
          <mxGeometry width="50" height="50" relative="1" as="geometry">
            <mxPoint x="370" y="60" as="sourcePoint" />
            <mxPoint x="542.5" y="59" as="targetPoint" />
          </mxGeometry>
        </mxCell>
        <mxCell id="I69gD_4dZlkaCYN15ihD-60" value="" style="endArrow=none;html=1;rounded=0;exitX=1;exitY=0.5;exitDx=0;exitDy=0;" parent="1" source="I69gD_4dZlkaCYN15ihD-53" edge="1">
          <mxGeometry width="50" height="50" relative="1" as="geometry">
            <mxPoint x="602.5" y="59" as="sourcePoint" />
            <mxPoint x="812.5" y="59" as="targetPoint" />
          </mxGeometry>
        </mxCell>
        <mxCell id="I69gD_4dZlkaCYN15ihD-53" value="&lt;font style=&quot;font-size: 11px;&quot;&gt;Digit&lt;/font&gt;" style="rounded=1;whiteSpace=wrap;html=1;" parent="1" vertex="1">
          <mxGeometry x="522.5" y="49" width="40" height="20" as="geometry" />
        </mxCell>
        <mxCell id="I69gD_4dZlkaCYN15ihD-67" value="0" style="ellipse;whiteSpace=wrap;html=1;fillColor=default;fontSize=11;flipV=1;" parent="1" vertex="1">
          <mxGeometry x="607.5" y="24" width="20" height="20" as="geometry" />
        </mxCell>
        <mxCell id="I69gD_4dZlkaCYN15ihD-66" value="&lt;font style=&quot;font-size: 11px;&quot;&gt;Digit&lt;/font&gt;" style="rounded=1;whiteSpace=wrap;html=1;" parent="1" vertex="1">
          <mxGeometry x="597.5" y="-11" width="40" height="20" as="geometry" />
        </mxCell>
        <mxCell id="68eKDMC-bbN40P5mF94e-4" value="" style="curved=1;endArrow=none;html=1;rounded=0;endFill=0;" parent="1" edge="1">
          <mxGeometry width="50" height="50" relative="1" as="geometry">
            <mxPoint x="607.5" y="34" as="sourcePoint" />
            <mxPoint x="582.5" y="49" as="targetPoint" />
            <Array as="points">
              <mxPoint x="587.5" y="34" />
            </Array>
          </mxGeometry>
        </mxCell>
        <mxCell id="68eKDMC-bbN40P5mF94e-5" value="" style="curved=1;endArrow=none;html=1;rounded=0;endFill=0;" parent="1" edge="1">
          <mxGeometry width="50" height="50" relative="1" as="geometry">
            <mxPoint x="627.5" y="34" as="sourcePoint" />
            <mxPoint x="652.5" y="49" as="targetPoint" />
            <Array as="points">
              <mxPoint x="647.5" y="34" />
            </Array>
          </mxGeometry>
        </mxCell>
        <mxCell id="68eKDMC-bbN40P5mF94e-6" value="" style="curved=1;endArrow=none;html=1;rounded=0;endFill=0;" parent="1" edge="1">
          <mxGeometry width="50" height="50" relative="1" as="geometry">
            <mxPoint x="637.5" y="-1" as="sourcePoint" />
            <mxPoint x="652.5" y="19" as="targetPoint" />
            <Array as="points">
              <mxPoint x="652.5" y="-1" />
            </Array>
          </mxGeometry>
        </mxCell>
        <mxCell id="68eKDMC-bbN40P5mF94e-7" value="" style="curved=1;endArrow=none;html=1;rounded=0;endFill=0;" parent="1" edge="1">
          <mxGeometry width="50" height="50" relative="1" as="geometry">
            <mxPoint x="597.5" y="-1" as="sourcePoint" />
            <mxPoint x="582.5" y="19" as="targetPoint" />
            <Array as="points">
              <mxPoint x="582.5" y="-1" />
            </Array>
          </mxGeometry>
        </mxCell>
        <mxCell id="68eKDMC-bbN40P5mF94e-9" value="" style="endArrow=none;html=1;rounded=0;" parent="1" edge="1">
          <mxGeometry width="50" height="50" relative="1" as="geometry">
            <mxPoint x="652.5" y="19" as="sourcePoint" />
            <mxPoint x="652.5" y="49" as="targetPoint" />
          </mxGeometry>
        </mxCell>
        <mxCell id="68eKDMC-bbN40P5mF94e-10" value="" style="endArrow=none;html=1;rounded=0;" parent="1" edge="1">
          <mxGeometry width="50" height="50" relative="1" as="geometry">
            <mxPoint x="582.5" y="19" as="sourcePoint" />
            <mxPoint x="582.5" y="49" as="targetPoint" />
          </mxGeometry>
        </mxCell>
        <mxCell id="68eKDMC-bbN40P5mF94e-11" value="" style="curved=1;endArrow=none;html=1;rounded=0;endFill=0;" parent="1" edge="1">
          <mxGeometry width="50" height="50" relative="1" as="geometry">
            <mxPoint x="582.4999999999998" y="49" as="sourcePoint" />
            <mxPoint x="572.4999999999998" y="59" as="targetPoint" />
            <Array as="points">
              <mxPoint x="582.4999999999998" y="59" />
            </Array>
          </mxGeometry>
        </mxCell>
        <mxCell id="68eKDMC-bbN40P5mF94e-14" value="" style="curved=1;endArrow=none;html=1;rounded=0;endFill=0;" parent="1" edge="1">
          <mxGeometry width="50" height="50" relative="1" as="geometry">
            <mxPoint x="652.4999999999998" y="49" as="sourcePoint" />
            <mxPoint x="662.4999999999998" y="59" as="targetPoint" />
            <Array as="points">
              <mxPoint x="652.4999999999998" y="59" />
            </Array>
          </mxGeometry>
        </mxCell>
        <mxCell id="68eKDMC-bbN40P5mF94e-21" value="0" style="ellipse;whiteSpace=wrap;html=1;fillColor=default;fontSize=11;flipV=1;" parent="1" vertex="1">
          <mxGeometry x="697.5" y="24" width="20" height="20" as="geometry" />
        </mxCell>
        <mxCell id="68eKDMC-bbN40P5mF94e-22" value="&lt;font style=&quot;font-size: 11px;&quot;&gt;Digit&lt;/font&gt;" style="rounded=1;whiteSpace=wrap;html=1;" parent="1" vertex="1">
          <mxGeometry x="687.5" y="-11" width="40" height="20" as="geometry" />
        </mxCell>
        <mxCell id="68eKDMC-bbN40P5mF94e-23" value="" style="curved=1;endArrow=none;html=1;rounded=0;endFill=0;" parent="1" edge="1">
          <mxGeometry width="50" height="50" relative="1" as="geometry">
            <mxPoint x="697.5" y="34" as="sourcePoint" />
            <mxPoint x="672.5" y="49" as="targetPoint" />
            <Array as="points">
              <mxPoint x="677.5" y="34" />
            </Array>
          </mxGeometry>
        </mxCell>
        <mxCell id="68eKDMC-bbN40P5mF94e-24" value="" style="curved=1;endArrow=none;html=1;rounded=0;endFill=0;" parent="1" edge="1">
          <mxGeometry width="50" height="50" relative="1" as="geometry">
            <mxPoint x="717.5" y="34" as="sourcePoint" />
            <mxPoint x="742.5" y="49" as="targetPoint" />
            <Array as="points">
              <mxPoint x="737.5" y="34" />
            </Array>
          </mxGeometry>
        </mxCell>
        <mxCell id="68eKDMC-bbN40P5mF94e-25" value="" style="curved=1;endArrow=none;html=1;rounded=0;endFill=0;" parent="1" edge="1">
          <mxGeometry width="50" height="50" relative="1" as="geometry">
            <mxPoint x="727.5" y="-1" as="sourcePoint" />
            <mxPoint x="742.5" y="19" as="targetPoint" />
            <Array as="points">
              <mxPoint x="742.5" y="-1" />
            </Array>
          </mxGeometry>
        </mxCell>
        <mxCell id="68eKDMC-bbN40P5mF94e-26" value="" style="curved=1;endArrow=none;html=1;rounded=0;endFill=0;" parent="1" edge="1">
          <mxGeometry width="50" height="50" relative="1" as="geometry">
            <mxPoint x="687.5" y="-1" as="sourcePoint" />
            <mxPoint x="672.5" y="19" as="targetPoint" />
            <Array as="points">
              <mxPoint x="672.5" y="-1" />
            </Array>
          </mxGeometry>
        </mxCell>
        <mxCell id="68eKDMC-bbN40P5mF94e-27" value="" style="endArrow=none;html=1;rounded=0;" parent="1" edge="1">
          <mxGeometry width="50" height="50" relative="1" as="geometry">
            <mxPoint x="742.5" y="19" as="sourcePoint" />
            <mxPoint x="742.5" y="49" as="targetPoint" />
          </mxGeometry>
        </mxCell>
        <mxCell id="68eKDMC-bbN40P5mF94e-28" value="" style="endArrow=none;html=1;rounded=0;" parent="1" edge="1">
          <mxGeometry width="50" height="50" relative="1" as="geometry">
            <mxPoint x="672.5" y="19" as="sourcePoint" />
            <mxPoint x="672.5" y="49" as="targetPoint" />
          </mxGeometry>
        </mxCell>
        <mxCell id="68eKDMC-bbN40P5mF94e-29" value="" style="curved=1;endArrow=none;html=1;rounded=0;endFill=0;" parent="1" edge="1">
          <mxGeometry width="50" height="50" relative="1" as="geometry">
            <mxPoint x="672.4999999999998" y="49" as="sourcePoint" />
            <mxPoint x="662.4999999999998" y="59" as="targetPoint" />
            <Array as="points">
              <mxPoint x="672.4999999999998" y="59" />
            </Array>
          </mxGeometry>
        </mxCell>
        <mxCell id="68eKDMC-bbN40P5mF94e-30" value="" style="curved=1;endArrow=none;html=1;rounded=0;endFill=0;" parent="1" edge="1">
          <mxGeometry width="50" height="50" relative="1" as="geometry">
            <mxPoint x="742.4999999999998" y="49" as="sourcePoint" />
            <mxPoint x="752.4999999999998" y="59" as="targetPoint" />
            <Array as="points">
              <mxPoint x="742.4999999999998" y="59" />
            </Array>
          </mxGeometry>
        </mxCell>
        <mxCell id="68eKDMC-bbN40P5mF94e-56" value="particleVel" style="text;html=1;align=left;verticalAlign=middle;whiteSpace=wrap;rounded=0;" parent="1" vertex="1">
          <mxGeometry x="368.5" y="400" width="90" height="30" as="geometry" />
        </mxCell>
        <mxCell id="68eKDMC-bbN40P5mF94e-57" value="" style="endArrow=none;html=1;rounded=0;" parent="1" edge="1">
          <mxGeometry width="50" height="50" relative="1" as="geometry">
            <mxPoint x="368.5" y="430" as="sourcePoint" />
            <mxPoint x="888.5" y="429.5" as="targetPoint" />
          </mxGeometry>
        </mxCell>
        <mxCell id="68eKDMC-bbN40P5mF94e-58" value="" style="endArrow=none;html=1;rounded=0;" parent="1" edge="1">
          <mxGeometry width="50" height="50" relative="1" as="geometry">
            <mxPoint x="368.5" y="140" as="sourcePoint" />
            <mxPoint x="888.5" y="140" as="targetPoint" />
          </mxGeometry>
        </mxCell>
        <mxCell id="68eKDMC-bbN40P5mF94e-60" value="(" style="ellipse;whiteSpace=wrap;html=1;fillColor=default;fontSize=11;flipV=1;" parent="1" vertex="1">
          <mxGeometry x="554.5" y="130.5" width="20" height="20" as="geometry" />
        </mxCell>
        <mxCell id="68eKDMC-bbN40P5mF94e-61" value="," style="ellipse;whiteSpace=wrap;html=1;fillColor=default;fontSize=11;flipV=1;" parent="1" vertex="1">
          <mxGeometry x="675.5" y="130" width="20" height="20" as="geometry" />
        </mxCell>
        <mxCell id="68eKDMC-bbN40P5mF94e-63" value="&lt;span style=&quot;font-size: 11px;&quot;&gt;validCoordinate&lt;/span&gt;" style="rounded=1;whiteSpace=wrap;html=1;" parent="1" vertex="1">
          <mxGeometry x="704.5" y="131" width="80" height="20" as="geometry" />
        </mxCell>
        <mxCell id="68eKDMC-bbN40P5mF94e-64" value=")" style="ellipse;whiteSpace=wrap;html=1;fillColor=default;fontSize=11;flipV=1;" parent="1" vertex="1">
          <mxGeometry x="792.5" y="130" width="20" height="20" as="geometry" />
        </mxCell>
        <mxCell id="68eKDMC-bbN40P5mF94e-65" value="@" style="ellipse;whiteSpace=wrap;html=1;fillColor=default;fontSize=11;flipV=1;" parent="1" vertex="1">
          <mxGeometry x="469.5" y="130" width="20" height="20" as="geometry" />
        </mxCell>
        <mxCell id="68eKDMC-bbN40P5mF94e-66" value="[" style="ellipse;whiteSpace=wrap;html=1;fillColor=default;fontSize=11;flipV=1;" parent="1" vertex="1">
          <mxGeometry x="499.5" y="130" width="20" height="20" as="geometry" />
        </mxCell>
        <mxCell id="68eKDMC-bbN40P5mF94e-67" value="]" style="ellipse;whiteSpace=wrap;html=1;fillColor=default;fontSize=11;flipV=1;" parent="1" vertex="1">
          <mxGeometry x="849.5" y="130" width="20" height="20" as="geometry" />
        </mxCell>
        <mxCell id="68eKDMC-bbN40P5mF94e-68" value="&lt;font style=&quot;font-size: 11px;&quot;&gt;validCoordinate&lt;/font&gt;" style="rounded=1;whiteSpace=wrap;html=1;" parent="1" vertex="1">
          <mxGeometry x="584.5" y="130.5" width="80" height="20" as="geometry" />
        </mxCell>
        <mxCell id="68eKDMC-bbN40P5mF94e-69" value="" style="curved=1;endArrow=none;html=1;rounded=0;endFill=0;" parent="1" edge="1">
          <mxGeometry width="50" height="50" relative="1" as="geometry">
            <mxPoint x="549.5" y="140" as="sourcePoint" />
            <mxPoint x="529.5" y="160" as="targetPoint" />
            <Array as="points">
              <mxPoint x="529.5" y="140" />
            </Array>
          </mxGeometry>
        </mxCell>
        <mxCell id="68eKDMC-bbN40P5mF94e-71" value="" style="curved=1;endArrow=none;html=1;rounded=0;endFill=0;" parent="1" edge="1">
          <mxGeometry width="50" height="50" relative="1" as="geometry">
            <mxPoint x="549.5" y="180" as="sourcePoint" />
            <mxPoint x="529.5" y="160" as="targetPoint" />
            <Array as="points">
              <mxPoint x="529.5" y="180" />
            </Array>
          </mxGeometry>
        </mxCell>
        <mxCell id="68eKDMC-bbN40P5mF94e-72" value="" style="curved=1;endArrow=none;html=1;rounded=0;endFill=0;" parent="1" edge="1">
          <mxGeometry width="50" height="50" relative="1" as="geometry">
            <mxPoint x="819.5" y="140" as="sourcePoint" />
            <mxPoint x="839.5" y="160" as="targetPoint" />
            <Array as="points">
              <mxPoint x="839.5" y="140" />
            </Array>
          </mxGeometry>
        </mxCell>
        <mxCell id="68eKDMC-bbN40P5mF94e-73" value="" style="curved=1;endArrow=none;html=1;rounded=0;endFill=0;" parent="1" edge="1">
          <mxGeometry width="50" height="50" relative="1" as="geometry">
            <mxPoint x="819.5" y="180" as="sourcePoint" />
            <mxPoint x="839.5" y="160" as="targetPoint" />
            <Array as="points">
              <mxPoint x="839.5" y="180" />
            </Array>
          </mxGeometry>
        </mxCell>
        <mxCell id="68eKDMC-bbN40P5mF94e-74" value="" style="endArrow=none;html=1;rounded=0;" parent="1" edge="1">
          <mxGeometry width="50" height="50" relative="1" as="geometry">
            <mxPoint x="549.5" y="180" as="sourcePoint" />
            <mxPoint x="819.5" y="180" as="targetPoint" />
          </mxGeometry>
        </mxCell>
        <mxCell id="68eKDMC-bbN40P5mF94e-76" value="#" style="ellipse;whiteSpace=wrap;html=1;fillColor=default;fontSize=11;flipV=1;" parent="1" vertex="1">
          <mxGeometry x="468.5" y="419" width="20" height="20" as="geometry" />
        </mxCell>
        <mxCell id="68eKDMC-bbN40P5mF94e-77" value="[" style="ellipse;whiteSpace=wrap;html=1;fillColor=default;fontSize=11;flipV=1;" parent="1" vertex="1">
          <mxGeometry x="498.5" y="419" width="20" height="20" as="geometry" />
        </mxCell>
        <mxCell id="68eKDMC-bbN40P5mF94e-78" value="]" style="ellipse;whiteSpace=wrap;html=1;fillColor=default;fontSize=11;flipV=1;" parent="1" vertex="1">
          <mxGeometry x="835" y="419" width="20" height="20" as="geometry" />
        </mxCell>
        <mxCell id="68eKDMC-bbN40P5mF94e-79" value="" style="endArrow=none;html=1;rounded=0;" parent="1" edge="1">
          <mxGeometry width="50" height="50" relative="1" as="geometry">
            <mxPoint x="528.5" y="310" as="sourcePoint" />
            <mxPoint x="558.5" y="310" as="targetPoint" />
          </mxGeometry>
        </mxCell>
        <mxCell id="68eKDMC-bbN40P5mF94e-80" value="validVelocity" style="text;html=1;align=left;verticalAlign=middle;whiteSpace=wrap;rounded=0;" parent="1" vertex="1">
          <mxGeometry x="368.5" y="280" width="90" height="30" as="geometry" />
        </mxCell>
        <mxCell id="68eKDMC-bbN40P5mF94e-81" value="0" style="ellipse;whiteSpace=wrap;html=1;fillColor=default;fontSize=11;flipV=1;" parent="1" vertex="1">
          <mxGeometry x="763.5" y="276.15999999999997" width="20" height="20" as="geometry" />
        </mxCell>
        <mxCell id="68eKDMC-bbN40P5mF94e-82" value="&lt;font style=&quot;font-size: 11px;&quot;&gt;Digit&lt;/font&gt;" style="rounded=1;whiteSpace=wrap;html=1;" parent="1" vertex="1">
          <mxGeometry x="753.5" y="241.16000000000003" width="40" height="20" as="geometry" />
        </mxCell>
        <mxCell id="68eKDMC-bbN40P5mF94e-83" value="" style="curved=1;endArrow=none;html=1;rounded=0;endFill=0;" parent="1" edge="1">
          <mxGeometry width="50" height="50" relative="1" as="geometry">
            <mxPoint x="763.5" y="286.15999999999997" as="sourcePoint" />
            <mxPoint x="738.5" y="301.15999999999997" as="targetPoint" />
            <Array as="points">
              <mxPoint x="743.5" y="286.15999999999997" />
            </Array>
          </mxGeometry>
        </mxCell>
        <mxCell id="68eKDMC-bbN40P5mF94e-84" value="" style="curved=1;endArrow=none;html=1;rounded=0;endFill=0;" parent="1" edge="1">
          <mxGeometry width="50" height="50" relative="1" as="geometry">
            <mxPoint x="783.5" y="286.15999999999997" as="sourcePoint" />
            <mxPoint x="808.5" y="301.15999999999997" as="targetPoint" />
            <Array as="points">
              <mxPoint x="803.5" y="286.15999999999997" />
            </Array>
          </mxGeometry>
        </mxCell>
        <mxCell id="68eKDMC-bbN40P5mF94e-85" value="" style="curved=1;endArrow=none;html=1;rounded=0;endFill=0;" parent="1" edge="1">
          <mxGeometry width="50" height="50" relative="1" as="geometry">
            <mxPoint x="793.5" y="251.16000000000003" as="sourcePoint" />
            <mxPoint x="808.5" y="271.15999999999997" as="targetPoint" />
            <Array as="points">
              <mxPoint x="808.5" y="251.16000000000003" />
            </Array>
          </mxGeometry>
        </mxCell>
        <mxCell id="68eKDMC-bbN40P5mF94e-86" value="" style="curved=1;endArrow=none;html=1;rounded=0;endFill=0;" parent="1" edge="1">
          <mxGeometry width="50" height="50" relative="1" as="geometry">
            <mxPoint x="753.5" y="251.16000000000003" as="sourcePoint" />
            <mxPoint x="738.5" y="271.15999999999997" as="targetPoint" />
            <Array as="points">
              <mxPoint x="738.5" y="251.16000000000003" />
            </Array>
          </mxGeometry>
        </mxCell>
        <mxCell id="68eKDMC-bbN40P5mF94e-87" value="" style="endArrow=none;html=1;rounded=0;" parent="1" edge="1">
          <mxGeometry width="50" height="50" relative="1" as="geometry">
            <mxPoint x="808.5" y="271.15999999999997" as="sourcePoint" />
            <mxPoint x="808.5" y="301.15999999999997" as="targetPoint" />
          </mxGeometry>
        </mxCell>
        <mxCell id="68eKDMC-bbN40P5mF94e-88" value="" style="endArrow=none;html=1;rounded=0;" parent="1" edge="1">
          <mxGeometry width="50" height="50" relative="1" as="geometry">
            <mxPoint x="738.5" y="271.15999999999997" as="sourcePoint" />
            <mxPoint x="738.5" y="301.15999999999997" as="targetPoint" />
          </mxGeometry>
        </mxCell>
        <mxCell id="68eKDMC-bbN40P5mF94e-89" value="" style="curved=1;endArrow=none;html=1;rounded=0;endFill=0;" parent="1" edge="1">
          <mxGeometry width="50" height="50" relative="1" as="geometry">
            <mxPoint x="738.4999999999998" y="300.15999999999997" as="sourcePoint" />
            <mxPoint x="728.4999999999998" y="310.15999999999997" as="targetPoint" />
            <Array as="points">
              <mxPoint x="738.4999999999998" y="310.15999999999997" />
            </Array>
          </mxGeometry>
        </mxCell>
        <mxCell id="68eKDMC-bbN40P5mF94e-90" value="" style="curved=1;endArrow=none;html=1;rounded=0;endFill=0;" parent="1" edge="1">
          <mxGeometry width="50" height="50" relative="1" as="geometry">
            <mxPoint x="808.5" y="300.15999999999997" as="sourcePoint" />
            <mxPoint x="818.5" y="310.15999999999997" as="targetPoint" />
            <Array as="points">
              <mxPoint x="808.4999999999998" y="310.15999999999997" />
            </Array>
          </mxGeometry>
        </mxCell>
        <mxCell id="68eKDMC-bbN40P5mF94e-93" value="" style="curved=1;endArrow=none;html=1;rounded=0;endFill=0;" parent="1" edge="1">
          <mxGeometry width="50" height="50" relative="1" as="geometry">
            <mxPoint x="719.5" y="310.15999999999997" as="sourcePoint" />
            <mxPoint x="699.5" y="330.15999999999997" as="targetPoint" />
            <Array as="points">
              <mxPoint x="699.5" y="310.15999999999997" />
            </Array>
          </mxGeometry>
        </mxCell>
        <mxCell id="68eKDMC-bbN40P5mF94e-94" value="" style="curved=1;endArrow=none;html=1;rounded=0;endFill=0;" parent="1" edge="1">
          <mxGeometry width="50" height="50" relative="1" as="geometry">
            <mxPoint x="719.5" y="350.15999999999997" as="sourcePoint" />
            <mxPoint x="699.5" y="330.15999999999997" as="targetPoint" />
            <Array as="points">
              <mxPoint x="699.5" y="350.15999999999997" />
            </Array>
          </mxGeometry>
        </mxCell>
        <mxCell id="68eKDMC-bbN40P5mF94e-95" value="" style="curved=1;endArrow=none;html=1;rounded=0;endFill=0;" parent="1" edge="1">
          <mxGeometry width="50" height="50" relative="1" as="geometry">
            <mxPoint x="828.5" y="310.15999999999997" as="sourcePoint" />
            <mxPoint x="848.5" y="330.15999999999997" as="targetPoint" />
            <Array as="points">
              <mxPoint x="848.5" y="310.15999999999997" />
            </Array>
          </mxGeometry>
        </mxCell>
        <mxCell id="68eKDMC-bbN40P5mF94e-96" value="" style="curved=1;endArrow=none;html=1;rounded=0;endFill=0;" parent="1" edge="1">
          <mxGeometry width="50" height="50" relative="1" as="geometry">
            <mxPoint x="828.5" y="350.15999999999997" as="sourcePoint" />
            <mxPoint x="848.5" y="330.15999999999997" as="targetPoint" />
            <Array as="points">
              <mxPoint x="848.5" y="350.15999999999997" />
            </Array>
          </mxGeometry>
        </mxCell>
        <mxCell id="68eKDMC-bbN40P5mF94e-97" value="" style="endArrow=none;html=1;rounded=0;" parent="1" edge="1">
          <mxGeometry width="50" height="50" relative="1" as="geometry">
            <mxPoint x="713.5" y="350.15999999999997" as="sourcePoint" />
            <mxPoint x="833.5" y="350.15999999999997" as="targetPoint" />
          </mxGeometry>
        </mxCell>
        <mxCell id="68eKDMC-bbN40P5mF94e-98" value="" style="endArrow=none;html=1;rounded=0;" parent="1" edge="1">
          <mxGeometry width="50" height="50" relative="1" as="geometry">
            <mxPoint x="818.5" y="310" as="sourcePoint" />
            <mxPoint x="888.5" y="310" as="targetPoint" />
          </mxGeometry>
        </mxCell>
        <mxCell id="68eKDMC-bbN40P5mF94e-116" value="0" style="ellipse;whiteSpace=wrap;html=1;fillColor=default;fontSize=11;flipV=1;" parent="1" vertex="1">
          <mxGeometry x="592.5" y="276" width="20" height="20" as="geometry" />
        </mxCell>
        <mxCell id="68eKDMC-bbN40P5mF94e-117" value="&lt;font style=&quot;font-size: 11px;&quot;&gt;Digit&lt;/font&gt;" style="rounded=1;whiteSpace=wrap;html=1;" parent="1" vertex="1">
          <mxGeometry x="582.5" y="241" width="40" height="20" as="geometry" />
        </mxCell>
        <mxCell id="68eKDMC-bbN40P5mF94e-118" value="" style="curved=1;endArrow=none;html=1;rounded=0;endFill=0;" parent="1" edge="1">
          <mxGeometry width="50" height="50" relative="1" as="geometry">
            <mxPoint x="592.5" y="286" as="sourcePoint" />
            <mxPoint x="567.5" y="301" as="targetPoint" />
            <Array as="points">
              <mxPoint x="572.5" y="286" />
            </Array>
          </mxGeometry>
        </mxCell>
        <mxCell id="68eKDMC-bbN40P5mF94e-119" value="" style="curved=1;endArrow=none;html=1;rounded=0;endFill=0;" parent="1" edge="1">
          <mxGeometry width="50" height="50" relative="1" as="geometry">
            <mxPoint x="612.5" y="286" as="sourcePoint" />
            <mxPoint x="637.5" y="301" as="targetPoint" />
            <Array as="points">
              <mxPoint x="632.5" y="286" />
            </Array>
          </mxGeometry>
        </mxCell>
        <mxCell id="68eKDMC-bbN40P5mF94e-120" value="" style="curved=1;endArrow=none;html=1;rounded=0;endFill=0;" parent="1" edge="1">
          <mxGeometry width="50" height="50" relative="1" as="geometry">
            <mxPoint x="622.5" y="251" as="sourcePoint" />
            <mxPoint x="637.5" y="271" as="targetPoint" />
            <Array as="points">
              <mxPoint x="637.5" y="251" />
            </Array>
          </mxGeometry>
        </mxCell>
        <mxCell id="68eKDMC-bbN40P5mF94e-121" value="" style="curved=1;endArrow=none;html=1;rounded=0;endFill=0;" parent="1" edge="1">
          <mxGeometry width="50" height="50" relative="1" as="geometry">
            <mxPoint x="582.5" y="251" as="sourcePoint" />
            <mxPoint x="567.5" y="271" as="targetPoint" />
            <Array as="points">
              <mxPoint x="567.5" y="251" />
            </Array>
          </mxGeometry>
        </mxCell>
        <mxCell id="68eKDMC-bbN40P5mF94e-122" value="" style="endArrow=none;html=1;rounded=0;" parent="1" edge="1">
          <mxGeometry width="50" height="50" relative="1" as="geometry">
            <mxPoint x="637.5" y="271" as="sourcePoint" />
            <mxPoint x="637.5" y="301" as="targetPoint" />
          </mxGeometry>
        </mxCell>
        <mxCell id="68eKDMC-bbN40P5mF94e-123" value="" style="endArrow=none;html=1;rounded=0;" parent="1" edge="1">
          <mxGeometry width="50" height="50" relative="1" as="geometry">
            <mxPoint x="567.5" y="271" as="sourcePoint" />
            <mxPoint x="567.5" y="301" as="targetPoint" />
          </mxGeometry>
        </mxCell>
        <mxCell id="68eKDMC-bbN40P5mF94e-124" value="" style="curved=1;endArrow=none;html=1;rounded=0;endFill=0;" parent="1" edge="1">
          <mxGeometry width="50" height="50" relative="1" as="geometry">
            <mxPoint x="567.4999999999998" y="300" as="sourcePoint" />
            <mxPoint x="557.4999999999998" y="310" as="targetPoint" />
            <Array as="points">
              <mxPoint x="567.4999999999998" y="310" />
            </Array>
          </mxGeometry>
        </mxCell>
        <mxCell id="68eKDMC-bbN40P5mF94e-125" value="" style="curved=1;endArrow=none;html=1;rounded=0;endFill=0;" parent="1" edge="1">
          <mxGeometry width="50" height="50" relative="1" as="geometry">
            <mxPoint x="637.5" y="300" as="sourcePoint" />
            <mxPoint x="647.5" y="310" as="targetPoint" />
            <Array as="points">
              <mxPoint x="637.4999999999998" y="310" />
            </Array>
          </mxGeometry>
        </mxCell>
        <mxCell id="68eKDMC-bbN40P5mF94e-126" value="" style="curved=1;endArrow=none;html=1;rounded=0;endFill=0;" parent="1" edge="1">
          <mxGeometry width="50" height="50" relative="1" as="geometry">
            <mxPoint x="548.5" y="310" as="sourcePoint" />
            <mxPoint x="528.5" y="330" as="targetPoint" />
            <Array as="points">
              <mxPoint x="528.5" y="310" />
            </Array>
          </mxGeometry>
        </mxCell>
        <mxCell id="68eKDMC-bbN40P5mF94e-127" value="" style="curved=1;endArrow=none;html=1;rounded=0;endFill=0;" parent="1" edge="1">
          <mxGeometry width="50" height="50" relative="1" as="geometry">
            <mxPoint x="548.5" y="350" as="sourcePoint" />
            <mxPoint x="528.5" y="330" as="targetPoint" />
            <Array as="points">
              <mxPoint x="528.5" y="350" />
            </Array>
          </mxGeometry>
        </mxCell>
        <mxCell id="68eKDMC-bbN40P5mF94e-128" value="" style="curved=1;endArrow=none;html=1;rounded=0;endFill=0;" parent="1" edge="1">
          <mxGeometry width="50" height="50" relative="1" as="geometry">
            <mxPoint x="657.5" y="310" as="sourcePoint" />
            <mxPoint x="677.5" y="330" as="targetPoint" />
            <Array as="points">
              <mxPoint x="677.5" y="310" />
            </Array>
          </mxGeometry>
        </mxCell>
        <mxCell id="68eKDMC-bbN40P5mF94e-129" value="" style="curved=1;endArrow=none;html=1;rounded=0;endFill=0;" parent="1" edge="1">
          <mxGeometry width="50" height="50" relative="1" as="geometry">
            <mxPoint x="657.5" y="350" as="sourcePoint" />
            <mxPoint x="677.5" y="330" as="targetPoint" />
            <Array as="points">
              <mxPoint x="677.5" y="350" />
            </Array>
          </mxGeometry>
        </mxCell>
        <mxCell id="68eKDMC-bbN40P5mF94e-130" value="" style="endArrow=none;html=1;rounded=0;" parent="1" edge="1">
          <mxGeometry width="50" height="50" relative="1" as="geometry">
            <mxPoint x="542.5" y="350" as="sourcePoint" />
            <mxPoint x="662.5" y="350" as="targetPoint" />
          </mxGeometry>
        </mxCell>
        <mxCell id="68eKDMC-bbN40P5mF94e-132" value="&lt;font style=&quot;font-size: 11px;&quot;&gt;validVelocity&lt;/font&gt;" style="rounded=1;whiteSpace=wrap;html=1;" parent="1" vertex="1">
          <mxGeometry x="571.5" y="419" width="76" height="20" as="geometry" />
        </mxCell>
        <mxCell id="68eKDMC-bbN40P5mF94e-134" value="" style="endArrow=none;html=1;rounded=0;" parent="1" edge="1">
          <mxGeometry width="50" height="50" relative="1" as="geometry">
            <mxPoint x="368.5" y="310" as="sourcePoint" />
            <mxPoint x="458.5" y="310" as="targetPoint" />
          </mxGeometry>
        </mxCell>
        <mxCell id="68eKDMC-bbN40P5mF94e-138" value="+" style="ellipse;whiteSpace=wrap;html=1;fillColor=default;fontSize=11;flipV=1;" parent="1" vertex="1">
          <mxGeometry x="483.5" y="285" width="20" height="20" as="geometry" />
        </mxCell>
        <mxCell id="68eKDMC-bbN40P5mF94e-139" value="" style="curved=1;endArrow=none;html=1;rounded=0;endFill=0;" parent="1" edge="1">
          <mxGeometry width="50" height="50" relative="1" as="geometry">
            <mxPoint x="483.5" y="295" as="sourcePoint" />
            <mxPoint x="458.5" y="310" as="targetPoint" />
            <Array as="points">
              <mxPoint x="463.5" y="295" />
            </Array>
          </mxGeometry>
        </mxCell>
        <mxCell id="68eKDMC-bbN40P5mF94e-140" value="" style="curved=1;endArrow=none;html=1;rounded=0;endFill=0;" parent="1" edge="1">
          <mxGeometry width="50" height="50" relative="1" as="geometry">
            <mxPoint x="503.5" y="295" as="sourcePoint" />
            <mxPoint x="528.5" y="310" as="targetPoint" />
            <Array as="points">
              <mxPoint x="523.5" y="295" />
            </Array>
          </mxGeometry>
        </mxCell>
        <mxCell id="68eKDMC-bbN40P5mF94e-141" value="" style="curved=1;endArrow=none;html=1;rounded=0;endFill=0;" parent="1" edge="1">
          <mxGeometry width="50" height="50" relative="1" as="geometry">
            <mxPoint x="483.5" y="325" as="sourcePoint" />
            <mxPoint x="458.5" y="310" as="targetPoint" />
            <Array as="points">
              <mxPoint x="463.5" y="325" />
            </Array>
          </mxGeometry>
        </mxCell>
        <mxCell id="68eKDMC-bbN40P5mF94e-142" value="" style="curved=1;endArrow=none;html=1;rounded=0;endFill=0;" parent="1" edge="1">
          <mxGeometry width="50" height="50" relative="1" as="geometry">
            <mxPoint x="503.5" y="325" as="sourcePoint" />
            <mxPoint x="528.5" y="310" as="targetPoint" />
            <Array as="points">
              <mxPoint x="523.5" y="325" />
            </Array>
          </mxGeometry>
        </mxCell>
        <mxCell id="68eKDMC-bbN40P5mF94e-143" value="-" style="ellipse;whiteSpace=wrap;html=1;fillColor=default;fontSize=11;flipV=1;" parent="1" vertex="1">
          <mxGeometry x="483.5" y="314" width="20" height="20" as="geometry" />
        </mxCell>
        <mxCell id="68eKDMC-bbN40P5mF94e-144" value="," style="ellipse;whiteSpace=wrap;html=1;fillColor=default;fontSize=11;flipV=1;" parent="1" vertex="1">
          <mxGeometry x="657.5" y="419" width="20" height="20" as="geometry" />
        </mxCell>
        <mxCell id="68eKDMC-bbN40P5mF94e-145" value="&lt;font style=&quot;font-size: 11px;&quot;&gt;validVelocity&lt;/font&gt;" style="rounded=1;whiteSpace=wrap;html=1;" parent="1" vertex="1">
          <mxGeometry x="687.5" y="419" width="76" height="20" as="geometry" />
        </mxCell>
        <mxCell id="68eKDMC-bbN40P5mF94e-146" value="" style="curved=1;endArrow=none;html=1;rounded=0;endFill=0;" parent="1" edge="1">
          <mxGeometry width="50" height="50" relative="1" as="geometry">
            <mxPoint x="539.5" y="430" as="sourcePoint" />
            <mxPoint x="519.5" y="450" as="targetPoint" />
            <Array as="points">
              <mxPoint x="519.5" y="430" />
            </Array>
          </mxGeometry>
        </mxCell>
        <mxCell id="68eKDMC-bbN40P5mF94e-147" value="" style="curved=1;endArrow=none;html=1;rounded=0;endFill=0;" parent="1" edge="1">
          <mxGeometry width="50" height="50" relative="1" as="geometry">
            <mxPoint x="539.5" y="470" as="sourcePoint" />
            <mxPoint x="519.5" y="450" as="targetPoint" />
            <Array as="points">
              <mxPoint x="519.5" y="470" />
            </Array>
          </mxGeometry>
        </mxCell>
        <mxCell id="68eKDMC-bbN40P5mF94e-148" value="" style="curved=1;endArrow=none;html=1;rounded=0;endFill=0;" parent="1" edge="1">
          <mxGeometry width="50" height="50" relative="1" as="geometry">
            <mxPoint x="800" y="430" as="sourcePoint" />
            <mxPoint x="820" y="450" as="targetPoint" />
            <Array as="points">
              <mxPoint x="820" y="430" />
            </Array>
          </mxGeometry>
        </mxCell>
        <mxCell id="68eKDMC-bbN40P5mF94e-149" value="" style="curved=1;endArrow=none;html=1;rounded=0;endFill=0;" parent="1" edge="1">
          <mxGeometry width="50" height="50" relative="1" as="geometry">
            <mxPoint x="800" y="470" as="sourcePoint" />
            <mxPoint x="820" y="450" as="targetPoint" />
            <Array as="points">
              <mxPoint x="820" y="470" />
            </Array>
          </mxGeometry>
        </mxCell>
        <mxCell id="68eKDMC-bbN40P5mF94e-150" value="" style="endArrow=none;html=1;rounded=0;" parent="1" edge="1">
          <mxGeometry width="50" height="50" relative="1" as="geometry">
            <mxPoint x="540" y="470" as="sourcePoint" />
            <mxPoint x="800" y="470" as="targetPoint" />
          </mxGeometry>
        </mxCell>
        <mxCell id="68eKDMC-bbN40P5mF94e-152" value="(" style="ellipse;whiteSpace=wrap;html=1;fillColor=default;fontSize=11;flipV=1;" parent="1" vertex="1">
          <mxGeometry x="543.5" y="419" width="20" height="20" as="geometry" />
        </mxCell>
        <mxCell id="68eKDMC-bbN40P5mF94e-153" value=")" style="ellipse;whiteSpace=wrap;html=1;fillColor=default;fontSize=11;flipV=1;" parent="1" vertex="1">
          <mxGeometry x="773.5" y="419" width="20" height="20" as="geometry" />
        </mxCell>
        <mxCell id="68eKDMC-bbN40P5mF94e-157" value="Density" style="text;html=1;align=left;verticalAlign=middle;whiteSpace=wrap;rounded=0;" parent="1" vertex="1">
          <mxGeometry x="40" y="560" width="90" height="30" as="geometry" />
        </mxCell>
        <mxCell id="68eKDMC-bbN40P5mF94e-158" value="" style="endArrow=none;html=1;rounded=0;" parent="1" edge="1">
          <mxGeometry width="50" height="50" relative="1" as="geometry">
            <mxPoint x="40" y="590" as="sourcePoint" />
            <mxPoint x="240" y="590" as="targetPoint" />
          </mxGeometry>
        </mxCell>
        <mxCell id="68eKDMC-bbN40P5mF94e-159" value="$" style="ellipse;whiteSpace=wrap;html=1;fillColor=default;fontSize=11;flipV=1;" parent="1" vertex="1">
          <mxGeometry x="130" y="580" width="20" height="20" as="geometry" />
        </mxCell>
        <mxCell id="68eKDMC-bbN40P5mF94e-177" value="" style="curved=1;endArrow=none;html=1;rounded=0;endFill=0;" parent="1" edge="1">
          <mxGeometry width="50" height="50" relative="1" as="geometry">
            <mxPoint x="160" y="590" as="sourcePoint" />
            <mxPoint x="180" y="610" as="targetPoint" />
            <Array as="points">
              <mxPoint x="180" y="590" />
            </Array>
          </mxGeometry>
        </mxCell>
        <mxCell id="68eKDMC-bbN40P5mF94e-179" value="" style="curved=1;endArrow=none;html=1;rounded=0;endFill=0;" parent="1" edge="1">
          <mxGeometry width="50" height="50" relative="1" as="geometry">
            <mxPoint x="200" y="660" as="sourcePoint" />
            <mxPoint x="180" y="640" as="targetPoint" />
            <Array as="points">
              <mxPoint x="180" y="660" />
            </Array>
          </mxGeometry>
        </mxCell>
        <mxCell id="68eKDMC-bbN40P5mF94e-182" value="" style="endArrow=none;html=1;rounded=0;" parent="1" edge="1">
          <mxGeometry width="50" height="50" relative="1" as="geometry">
            <mxPoint x="180" y="610" as="sourcePoint" />
            <mxPoint x="180" y="640" as="targetPoint" />
          </mxGeometry>
        </mxCell>
        <mxCell id="68eKDMC-bbN40P5mF94e-183" value="" style="endArrow=none;html=1;rounded=0;" parent="1" edge="1">
          <mxGeometry width="50" height="50" relative="1" as="geometry">
            <mxPoint x="200" y="660" as="sourcePoint" />
            <mxPoint x="400" y="660" as="targetPoint" />
          </mxGeometry>
        </mxCell>
        <mxCell id="68eKDMC-bbN40P5mF94e-184" value="" style="curved=1;endArrow=none;html=1;rounded=0;endFill=0;" parent="1" edge="1">
          <mxGeometry width="50" height="50" relative="1" as="geometry">
            <mxPoint x="440" y="590" as="sourcePoint" />
            <mxPoint x="420" y="610" as="targetPoint" />
            <Array as="points">
              <mxPoint x="420" y="590" />
            </Array>
          </mxGeometry>
        </mxCell>
        <mxCell id="68eKDMC-bbN40P5mF94e-185" value="" style="curved=1;endArrow=none;html=1;rounded=0;endFill=0;" parent="1" edge="1">
          <mxGeometry width="50" height="50" relative="1" as="geometry">
            <mxPoint x="400" y="660" as="sourcePoint" />
            <mxPoint x="420" y="640" as="targetPoint" />
            <Array as="points">
              <mxPoint x="420" y="660" />
            </Array>
          </mxGeometry>
        </mxCell>
        <mxCell id="68eKDMC-bbN40P5mF94e-187" value="" style="endArrow=none;html=1;rounded=0;" parent="1" edge="1">
          <mxGeometry width="50" height="50" relative="1" as="geometry">
            <mxPoint x="420" y="640" as="sourcePoint" />
            <mxPoint x="420" y="610" as="targetPoint" />
          </mxGeometry>
        </mxCell>
        <mxCell id="68eKDMC-bbN40P5mF94e-181" value="100" style="ellipse;whiteSpace=wrap;html=1;fillColor=default;fontSize=11;flipV=1;" parent="1" vertex="1">
          <mxGeometry x="285" y="650" width="30" height="20" as="geometry" />
        </mxCell>
        <mxCell id="68eKDMC-bbN40P5mF94e-189" value="" style="endArrow=none;html=1;rounded=0;" parent="1" edge="1">
          <mxGeometry width="50" height="50" relative="1" as="geometry">
            <mxPoint x="310" y="590" as="sourcePoint" />
            <mxPoint x="520" y="590" as="targetPoint" />
          </mxGeometry>
        </mxCell>
        <mxCell id="68eKDMC-bbN40P5mF94e-190" value="" style="curved=1;endArrow=none;html=1;rounded=0;endFill=0;" parent="1" edge="1">
          <mxGeometry width="50" height="50" relative="1" as="geometry">
            <mxPoint x="315" y="590" as="sourcePoint" />
            <mxPoint x="335" y="610" as="targetPoint" />
            <Array as="points">
              <mxPoint x="335" y="590" />
            </Array>
          </mxGeometry>
        </mxCell>
        <mxCell id="68eKDMC-bbN40P5mF94e-191" value="" style="curved=1;endArrow=none;html=1;rounded=0;endFill=0;" parent="1" edge="1">
          <mxGeometry width="50" height="50" relative="1" as="geometry">
            <mxPoint x="355" y="630" as="sourcePoint" />
            <mxPoint x="335" y="610" as="targetPoint" />
            <Array as="points">
              <mxPoint x="335" y="630" />
            </Array>
          </mxGeometry>
        </mxCell>
        <mxCell id="68eKDMC-bbN40P5mF94e-192" value="" style="curved=1;endArrow=none;html=1;rounded=0;endFill=0;" parent="1" edge="1">
          <mxGeometry width="50" height="50" relative="1" as="geometry">
            <mxPoint x="395" y="590" as="sourcePoint" />
            <mxPoint x="375" y="610" as="targetPoint" />
            <Array as="points">
              <mxPoint x="375" y="590" />
            </Array>
          </mxGeometry>
        </mxCell>
        <mxCell id="68eKDMC-bbN40P5mF94e-193" value="" style="curved=1;endArrow=none;html=1;rounded=0;endFill=0;" parent="1" edge="1">
          <mxGeometry width="50" height="50" relative="1" as="geometry">
            <mxPoint x="355" y="630" as="sourcePoint" />
            <mxPoint x="375" y="610" as="targetPoint" />
            <Array as="points">
              <mxPoint x="375" y="630" />
            </Array>
          </mxGeometry>
        </mxCell>
        <mxCell id="68eKDMC-bbN40P5mF94e-194" value="&lt;font style=&quot;font-size: 11px;&quot;&gt;Digit&lt;/font&gt;" style="rounded=1;whiteSpace=wrap;html=1;" parent="1" vertex="1">
          <mxGeometry x="335" y="620" width="40" height="20" as="geometry" />
        </mxCell>
        <mxCell id="68eKDMC-bbN40P5mF94e-195" value="" style="curved=1;endArrow=none;html=1;rounded=0;endFill=0;" parent="1" edge="1">
          <mxGeometry width="50" height="50" relative="1" as="geometry">
            <mxPoint x="315" y="590" as="sourcePoint" />
            <mxPoint x="335" y="570" as="targetPoint" />
            <Array as="points">
              <mxPoint x="335" y="590" />
            </Array>
          </mxGeometry>
        </mxCell>
        <mxCell id="68eKDMC-bbN40P5mF94e-196" value="" style="curved=1;endArrow=none;html=1;rounded=0;endFill=0;" parent="1" edge="1">
          <mxGeometry width="50" height="50" relative="1" as="geometry">
            <mxPoint x="395" y="590" as="sourcePoint" />
            <mxPoint x="375" y="570" as="targetPoint" />
            <Array as="points">
              <mxPoint x="375" y="590" />
            </Array>
          </mxGeometry>
        </mxCell>
        <mxCell id="68eKDMC-bbN40P5mF94e-197" value="" style="curved=1;endArrow=none;html=1;rounded=0;endFill=0;" parent="1" edge="1">
          <mxGeometry width="50" height="50" relative="1" as="geometry">
            <mxPoint x="355" y="550" as="sourcePoint" />
            <mxPoint x="335" y="570" as="targetPoint" />
            <Array as="points">
              <mxPoint x="335" y="550" />
            </Array>
          </mxGeometry>
        </mxCell>
        <mxCell id="68eKDMC-bbN40P5mF94e-198" value="" style="curved=1;endArrow=none;html=1;rounded=0;endFill=0;" parent="1" edge="1">
          <mxGeometry width="50" height="50" relative="1" as="geometry">
            <mxPoint x="355" y="550" as="sourcePoint" />
            <mxPoint x="375" y="570" as="targetPoint" />
            <Array as="points">
              <mxPoint x="375" y="550" />
            </Array>
          </mxGeometry>
        </mxCell>
        <mxCell id="68eKDMC-bbN40P5mF94e-199" value="0" style="ellipse;whiteSpace=wrap;html=1;fillColor=default;fontSize=11;flipV=1;" parent="1" vertex="1">
          <mxGeometry x="345" y="540" width="20" height="20" as="geometry" />
        </mxCell>
        <mxCell id="68eKDMC-bbN40P5mF94e-200" value="Gravity" style="text;html=1;align=left;verticalAlign=middle;whiteSpace=wrap;rounded=0;" parent="1" vertex="1">
          <mxGeometry x="560" y="560" width="90" height="30" as="geometry" />
        </mxCell>
        <mxCell id="68eKDMC-bbN40P5mF94e-201" value="" style="endArrow=none;html=1;rounded=0;" parent="1" edge="1">
          <mxGeometry width="50" height="50" relative="1" as="geometry">
            <mxPoint x="560" y="590" as="sourcePoint" />
            <mxPoint x="760" y="590" as="targetPoint" />
          </mxGeometry>
        </mxCell>
        <mxCell id="68eKDMC-bbN40P5mF94e-202" value="%" style="ellipse;whiteSpace=wrap;html=1;fillColor=default;fontSize=11;flipV=1;" parent="1" vertex="1">
          <mxGeometry x="650" y="580" width="20" height="20" as="geometry" />
        </mxCell>
        <mxCell id="68eKDMC-bbN40P5mF94e-214" value="" style="curved=1;endArrow=none;html=1;rounded=0;endFill=0;" parent="1" edge="1">
          <mxGeometry width="50" height="50" relative="1" as="geometry">
            <mxPoint x="680" y="590" as="sourcePoint" />
            <mxPoint x="700" y="610" as="targetPoint" />
            <Array as="points">
              <mxPoint x="700" y="590" />
            </Array>
          </mxGeometry>
        </mxCell>
        <mxCell id="68eKDMC-bbN40P5mF94e-215" value="" style="curved=1;endArrow=none;html=1;rounded=0;endFill=0;" parent="1" edge="1">
          <mxGeometry width="50" height="50" relative="1" as="geometry">
            <mxPoint x="720" y="660" as="sourcePoint" />
            <mxPoint x="700" y="640" as="targetPoint" />
            <Array as="points">
              <mxPoint x="700" y="660" />
            </Array>
          </mxGeometry>
        </mxCell>
        <mxCell id="68eKDMC-bbN40P5mF94e-216" value="" style="endArrow=none;html=1;rounded=0;" parent="1" edge="1">
          <mxGeometry width="50" height="50" relative="1" as="geometry">
            <mxPoint x="700" y="610" as="sourcePoint" />
            <mxPoint x="700" y="640" as="targetPoint" />
          </mxGeometry>
        </mxCell>
        <mxCell id="68eKDMC-bbN40P5mF94e-217" value="" style="endArrow=none;html=1;rounded=0;" parent="1" edge="1">
          <mxGeometry width="50" height="50" relative="1" as="geometry">
            <mxPoint x="720" y="660" as="sourcePoint" />
            <mxPoint x="900" y="660" as="targetPoint" />
          </mxGeometry>
        </mxCell>
        <mxCell id="68eKDMC-bbN40P5mF94e-218" value="" style="curved=1;endArrow=none;html=1;rounded=0;endFill=0;" parent="1" edge="1">
          <mxGeometry width="50" height="50" relative="1" as="geometry">
            <mxPoint x="940" y="590" as="sourcePoint" />
            <mxPoint x="920" y="610" as="targetPoint" />
            <Array as="points">
              <mxPoint x="920" y="590" />
            </Array>
          </mxGeometry>
        </mxCell>
        <mxCell id="68eKDMC-bbN40P5mF94e-219" value="" style="curved=1;endArrow=none;html=1;rounded=0;endFill=0;" parent="1" edge="1">
          <mxGeometry width="50" height="50" relative="1" as="geometry">
            <mxPoint x="900" y="660" as="sourcePoint" />
            <mxPoint x="920" y="640" as="targetPoint" />
            <Array as="points">
              <mxPoint x="920" y="660" />
            </Array>
          </mxGeometry>
        </mxCell>
        <mxCell id="68eKDMC-bbN40P5mF94e-220" value="" style="endArrow=none;html=1;rounded=0;" parent="1" edge="1">
          <mxGeometry width="50" height="50" relative="1" as="geometry">
            <mxPoint x="920" y="640" as="sourcePoint" />
            <mxPoint x="920" y="610" as="targetPoint" />
          </mxGeometry>
        </mxCell>
        <mxCell id="68eKDMC-bbN40P5mF94e-221" value="100" style="ellipse;whiteSpace=wrap;html=1;fillColor=default;fontSize=11;flipV=1;" parent="1" vertex="1">
          <mxGeometry x="805" y="650" width="30" height="20" as="geometry" />
        </mxCell>
        <mxCell id="68eKDMC-bbN40P5mF94e-222" value="" style="endArrow=none;html=1;rounded=0;exitX=1;exitY=0.5;exitDx=0;exitDy=0;" parent="1" edge="1">
          <mxGeometry width="50" height="50" relative="1" as="geometry">
            <mxPoint x="750" y="590" as="sourcePoint" />
            <mxPoint x="1040" y="590" as="targetPoint" />
          </mxGeometry>
        </mxCell>
        <mxCell id="68eKDMC-bbN40P5mF94e-223" value="" style="curved=1;endArrow=none;html=1;rounded=0;endFill=0;" parent="1" edge="1">
          <mxGeometry width="50" height="50" relative="1" as="geometry">
            <mxPoint x="830" y="590" as="sourcePoint" />
            <mxPoint x="850" y="610" as="targetPoint" />
            <Array as="points">
              <mxPoint x="850" y="590" />
            </Array>
          </mxGeometry>
        </mxCell>
        <mxCell id="68eKDMC-bbN40P5mF94e-224" value="" style="curved=1;endArrow=none;html=1;rounded=0;endFill=0;" parent="1" edge="1">
          <mxGeometry width="50" height="50" relative="1" as="geometry">
            <mxPoint x="870" y="630" as="sourcePoint" />
            <mxPoint x="850" y="610" as="targetPoint" />
            <Array as="points">
              <mxPoint x="850" y="630" />
            </Array>
          </mxGeometry>
        </mxCell>
        <mxCell id="68eKDMC-bbN40P5mF94e-225" value="" style="curved=1;endArrow=none;html=1;rounded=0;endFill=0;" parent="1" edge="1">
          <mxGeometry width="50" height="50" relative="1" as="geometry">
            <mxPoint x="910" y="590" as="sourcePoint" />
            <mxPoint x="890" y="610" as="targetPoint" />
            <Array as="points">
              <mxPoint x="890" y="590" />
            </Array>
          </mxGeometry>
        </mxCell>
        <mxCell id="68eKDMC-bbN40P5mF94e-226" value="" style="curved=1;endArrow=none;html=1;rounded=0;endFill=0;" parent="1" edge="1">
          <mxGeometry width="50" height="50" relative="1" as="geometry">
            <mxPoint x="870" y="630" as="sourcePoint" />
            <mxPoint x="890" y="610" as="targetPoint" />
            <Array as="points">
              <mxPoint x="890" y="630" />
            </Array>
          </mxGeometry>
        </mxCell>
        <mxCell id="68eKDMC-bbN40P5mF94e-227" value="&lt;font style=&quot;font-size: 11px;&quot;&gt;Digit&lt;/font&gt;" style="rounded=1;whiteSpace=wrap;html=1;" parent="1" vertex="1">
          <mxGeometry x="850" y="620" width="40" height="20" as="geometry" />
        </mxCell>
        <mxCell id="68eKDMC-bbN40P5mF94e-228" value="" style="curved=1;endArrow=none;html=1;rounded=0;endFill=0;" parent="1" edge="1">
          <mxGeometry width="50" height="50" relative="1" as="geometry">
            <mxPoint x="830" y="590" as="sourcePoint" />
            <mxPoint x="850" y="570" as="targetPoint" />
            <Array as="points">
              <mxPoint x="850" y="590" />
            </Array>
          </mxGeometry>
        </mxCell>
        <mxCell id="68eKDMC-bbN40P5mF94e-229" value="" style="curved=1;endArrow=none;html=1;rounded=0;endFill=0;" parent="1" edge="1">
          <mxGeometry width="50" height="50" relative="1" as="geometry">
            <mxPoint x="910" y="590" as="sourcePoint" />
            <mxPoint x="890" y="570" as="targetPoint" />
            <Array as="points">
              <mxPoint x="890" y="590" />
            </Array>
          </mxGeometry>
        </mxCell>
        <mxCell id="68eKDMC-bbN40P5mF94e-230" value="" style="curved=1;endArrow=none;html=1;rounded=0;endFill=0;" parent="1" edge="1">
          <mxGeometry width="50" height="50" relative="1" as="geometry">
            <mxPoint x="870" y="550" as="sourcePoint" />
            <mxPoint x="850" y="570" as="targetPoint" />
            <Array as="points">
              <mxPoint x="850" y="550" />
            </Array>
          </mxGeometry>
        </mxCell>
        <mxCell id="68eKDMC-bbN40P5mF94e-231" value="" style="curved=1;endArrow=none;html=1;rounded=0;endFill=0;" parent="1" edge="1">
          <mxGeometry width="50" height="50" relative="1" as="geometry">
            <mxPoint x="870" y="550" as="sourcePoint" />
            <mxPoint x="890" y="570" as="targetPoint" />
            <Array as="points">
              <mxPoint x="890" y="550" />
            </Array>
          </mxGeometry>
        </mxCell>
        <mxCell id="68eKDMC-bbN40P5mF94e-232" value="0" style="ellipse;whiteSpace=wrap;html=1;fillColor=default;fontSize=11;flipV=1;" parent="1" vertex="1">
          <mxGeometry x="860" y="540" width="20" height="20" as="geometry" />
        </mxCell>
        <mxCell id="68eKDMC-bbN40P5mF94e-248" value="" style="curved=1;endArrow=none;html=1;rounded=0;endFill=0;" parent="1" edge="1">
          <mxGeometry width="50" height="50" relative="1" as="geometry">
            <mxPoint x="700" y="590" as="sourcePoint" />
            <mxPoint x="720" y="570" as="targetPoint" />
            <Array as="points">
              <mxPoint x="720" y="590" />
            </Array>
          </mxGeometry>
        </mxCell>
        <mxCell id="68eKDMC-bbN40P5mF94e-254" value="" style="curved=1;endArrow=none;html=1;rounded=0;endFill=0;" parent="1" edge="1">
          <mxGeometry width="50" height="50" relative="1" as="geometry">
            <mxPoint x="740" y="550" as="sourcePoint" />
            <mxPoint x="720" y="570" as="targetPoint" />
            <Array as="points">
              <mxPoint x="720" y="550" />
            </Array>
          </mxGeometry>
        </mxCell>
        <mxCell id="68eKDMC-bbN40P5mF94e-255" value="" style="curved=1;endArrow=none;html=1;rounded=0;endFill=0;" parent="1" edge="1">
          <mxGeometry width="50" height="50" relative="1" as="geometry">
            <mxPoint x="740" y="550" as="sourcePoint" />
            <mxPoint x="760" y="540" as="targetPoint" />
            <Array as="points">
              <mxPoint x="760" y="550" />
            </Array>
          </mxGeometry>
        </mxCell>
        <mxCell id="68eKDMC-bbN40P5mF94e-256" value="" style="curved=1;endArrow=none;html=1;rounded=0;endFill=0;" parent="1" edge="1">
          <mxGeometry width="50" height="50" relative="1" as="geometry">
            <mxPoint x="770" y="530" as="sourcePoint" />
            <mxPoint x="760" y="540" as="targetPoint" />
            <Array as="points">
              <mxPoint x="760" y="530" />
            </Array>
          </mxGeometry>
        </mxCell>
        <mxCell id="68eKDMC-bbN40P5mF94e-257" value="" style="endArrow=none;html=1;rounded=0;" parent="1" edge="1">
          <mxGeometry width="50" height="50" relative="1" as="geometry">
            <mxPoint x="770" y="530" as="sourcePoint" />
            <mxPoint x="900" y="530" as="targetPoint" />
          </mxGeometry>
        </mxCell>
        <mxCell id="68eKDMC-bbN40P5mF94e-258" value="" style="curved=1;endArrow=none;html=1;rounded=0;endFill=0;" parent="1" edge="1">
          <mxGeometry width="50" height="50" relative="1" as="geometry">
            <mxPoint x="900" y="530" as="sourcePoint" />
            <mxPoint x="920" y="550" as="targetPoint" />
            <Array as="points">
              <mxPoint x="920" y="530" />
            </Array>
          </mxGeometry>
        </mxCell>
        <mxCell id="68eKDMC-bbN40P5mF94e-259" value="" style="curved=1;endArrow=none;html=1;rounded=0;endFill=0;" parent="1" edge="1">
          <mxGeometry width="50" height="50" relative="1" as="geometry">
            <mxPoint x="940" y="590" as="sourcePoint" />
            <mxPoint x="920" y="570" as="targetPoint" />
            <Array as="points">
              <mxPoint x="920" y="590" />
            </Array>
          </mxGeometry>
        </mxCell>
        <mxCell id="68eKDMC-bbN40P5mF94e-260" value="" style="endArrow=none;html=1;rounded=0;" parent="1" edge="1">
          <mxGeometry width="50" height="50" relative="1" as="geometry">
            <mxPoint x="920" y="570" as="sourcePoint" />
            <mxPoint x="920" y="550" as="targetPoint" />
          </mxGeometry>
        </mxCell>
        <mxCell id="68eKDMC-bbN40P5mF94e-252" value="0" style="ellipse;whiteSpace=wrap;html=1;fillColor=default;fontSize=11;flipV=1;" parent="1" vertex="1">
          <mxGeometry x="730" y="540" width="20" height="20" as="geometry" />
        </mxCell>
        <mxCell id="68eKDMC-bbN40P5mF94e-208" value="&lt;font style=&quot;font-size: 11px;&quot;&gt;Digit&lt;/font&gt;" style="rounded=1;whiteSpace=wrap;html=1;" parent="1" vertex="1">
          <mxGeometry x="770" y="580" width="40" height="20" as="geometry" />
        </mxCell>
        <mxCell id="68eKDMC-bbN40P5mF94e-261" value="Magnitude" style="text;html=1;align=left;verticalAlign=middle;whiteSpace=wrap;rounded=0;" parent="1" vertex="1">
          <mxGeometry x="41" y="720" width="90" height="30" as="geometry" />
        </mxCell>
        <mxCell id="68eKDMC-bbN40P5mF94e-262" value="" style="endArrow=none;html=1;rounded=0;" parent="1" edge="1">
          <mxGeometry width="50" height="50" relative="1" as="geometry">
            <mxPoint x="41" y="750" as="sourcePoint" />
            <mxPoint x="241" y="750" as="targetPoint" />
          </mxGeometry>
        </mxCell>
        <mxCell id="68eKDMC-bbN40P5mF94e-263" value="^" style="ellipse;whiteSpace=wrap;html=1;fillColor=default;fontSize=11;flipV=1;" parent="1" vertex="1">
          <mxGeometry x="131" y="740" width="20" height="20" as="geometry" />
        </mxCell>
        <mxCell id="68eKDMC-bbN40P5mF94e-275" value="" style="curved=1;endArrow=none;html=1;rounded=0;endFill=0;" parent="1" edge="1">
          <mxGeometry width="50" height="50" relative="1" as="geometry">
            <mxPoint x="161" y="750" as="sourcePoint" />
            <mxPoint x="181" y="770" as="targetPoint" />
            <Array as="points">
              <mxPoint x="181" y="750" />
            </Array>
          </mxGeometry>
        </mxCell>
        <mxCell id="68eKDMC-bbN40P5mF94e-276" value="" style="curved=1;endArrow=none;html=1;rounded=0;endFill=0;" parent="1" edge="1">
          <mxGeometry width="50" height="50" relative="1" as="geometry">
            <mxPoint x="201" y="820" as="sourcePoint" />
            <mxPoint x="181" y="800" as="targetPoint" />
            <Array as="points">
              <mxPoint x="181" y="820" />
            </Array>
          </mxGeometry>
        </mxCell>
        <mxCell id="68eKDMC-bbN40P5mF94e-277" value="" style="endArrow=none;html=1;rounded=0;" parent="1" edge="1">
          <mxGeometry width="50" height="50" relative="1" as="geometry">
            <mxPoint x="181" y="770" as="sourcePoint" />
            <mxPoint x="181" y="800" as="targetPoint" />
          </mxGeometry>
        </mxCell>
        <mxCell id="68eKDMC-bbN40P5mF94e-278" value="" style="endArrow=none;html=1;rounded=0;" parent="1" edge="1">
          <mxGeometry width="50" height="50" relative="1" as="geometry">
            <mxPoint x="201" y="820" as="sourcePoint" />
            <mxPoint x="401" y="820" as="targetPoint" />
          </mxGeometry>
        </mxCell>
        <mxCell id="68eKDMC-bbN40P5mF94e-279" value="" style="curved=1;endArrow=none;html=1;rounded=0;endFill=0;" parent="1" edge="1">
          <mxGeometry width="50" height="50" relative="1" as="geometry">
            <mxPoint x="441" y="750" as="sourcePoint" />
            <mxPoint x="421" y="770" as="targetPoint" />
            <Array as="points">
              <mxPoint x="421" y="750" />
            </Array>
          </mxGeometry>
        </mxCell>
        <mxCell id="68eKDMC-bbN40P5mF94e-280" value="" style="curved=1;endArrow=none;html=1;rounded=0;endFill=0;" parent="1" edge="1">
          <mxGeometry width="50" height="50" relative="1" as="geometry">
            <mxPoint x="401" y="820" as="sourcePoint" />
            <mxPoint x="421" y="800" as="targetPoint" />
            <Array as="points">
              <mxPoint x="421" y="820" />
            </Array>
          </mxGeometry>
        </mxCell>
        <mxCell id="68eKDMC-bbN40P5mF94e-281" value="" style="endArrow=none;html=1;rounded=0;" parent="1" edge="1">
          <mxGeometry width="50" height="50" relative="1" as="geometry">
            <mxPoint x="421" y="800" as="sourcePoint" />
            <mxPoint x="421" y="770" as="targetPoint" />
          </mxGeometry>
        </mxCell>
        <mxCell id="68eKDMC-bbN40P5mF94e-282" value="100" style="ellipse;whiteSpace=wrap;html=1;fillColor=default;fontSize=11;flipV=1;" parent="1" vertex="1">
          <mxGeometry x="286" y="810" width="30" height="20" as="geometry" />
        </mxCell>
        <mxCell id="68eKDMC-bbN40P5mF94e-283" value="" style="endArrow=none;html=1;rounded=0;exitX=1;exitY=0.5;exitDx=0;exitDy=0;" parent="1" edge="1">
          <mxGeometry width="50" height="50" relative="1" as="geometry">
            <mxPoint x="231" y="750" as="sourcePoint" />
            <mxPoint x="320" y="750" as="targetPoint" />
          </mxGeometry>
        </mxCell>
        <mxCell id="68eKDMC-bbN40P5mF94e-284" value="" style="curved=1;endArrow=none;html=1;rounded=0;endFill=0;" parent="1" edge="1">
          <mxGeometry width="50" height="50" relative="1" as="geometry">
            <mxPoint x="316" y="750" as="sourcePoint" />
            <mxPoint x="336" y="770" as="targetPoint" />
            <Array as="points">
              <mxPoint x="336" y="750" />
            </Array>
          </mxGeometry>
        </mxCell>
        <mxCell id="68eKDMC-bbN40P5mF94e-285" value="" style="curved=1;endArrow=none;html=1;rounded=0;endFill=0;" parent="1" edge="1">
          <mxGeometry width="50" height="50" relative="1" as="geometry">
            <mxPoint x="356" y="790" as="sourcePoint" />
            <mxPoint x="336" y="770" as="targetPoint" />
            <Array as="points">
              <mxPoint x="336" y="790" />
            </Array>
          </mxGeometry>
        </mxCell>
        <mxCell id="68eKDMC-bbN40P5mF94e-286" value="" style="curved=1;endArrow=none;html=1;rounded=0;endFill=0;" parent="1" edge="1">
          <mxGeometry width="50" height="50" relative="1" as="geometry">
            <mxPoint x="396" y="750" as="sourcePoint" />
            <mxPoint x="376" y="770" as="targetPoint" />
            <Array as="points">
              <mxPoint x="376" y="750" />
            </Array>
          </mxGeometry>
        </mxCell>
        <mxCell id="68eKDMC-bbN40P5mF94e-287" value="" style="curved=1;endArrow=none;html=1;rounded=0;endFill=0;" parent="1" edge="1">
          <mxGeometry width="50" height="50" relative="1" as="geometry">
            <mxPoint x="356" y="790" as="sourcePoint" />
            <mxPoint x="376" y="770" as="targetPoint" />
            <Array as="points">
              <mxPoint x="376" y="790" />
            </Array>
          </mxGeometry>
        </mxCell>
        <mxCell id="68eKDMC-bbN40P5mF94e-288" value="&lt;font style=&quot;font-size: 11px;&quot;&gt;Digit&lt;/font&gt;" style="rounded=1;whiteSpace=wrap;html=1;" parent="1" vertex="1">
          <mxGeometry x="336" y="780" width="40" height="20" as="geometry" />
        </mxCell>
        <mxCell id="68eKDMC-bbN40P5mF94e-289" value="" style="curved=1;endArrow=none;html=1;rounded=0;endFill=0;" parent="1" edge="1">
          <mxGeometry width="50" height="50" relative="1" as="geometry">
            <mxPoint x="316" y="750" as="sourcePoint" />
            <mxPoint x="336" y="730" as="targetPoint" />
            <Array as="points">
              <mxPoint x="336" y="750" />
            </Array>
          </mxGeometry>
        </mxCell>
        <mxCell id="68eKDMC-bbN40P5mF94e-290" value="" style="curved=1;endArrow=none;html=1;rounded=0;endFill=0;" parent="1" edge="1">
          <mxGeometry width="50" height="50" relative="1" as="geometry">
            <mxPoint x="396" y="750" as="sourcePoint" />
            <mxPoint x="376" y="730" as="targetPoint" />
            <Array as="points">
              <mxPoint x="376" y="750" />
            </Array>
          </mxGeometry>
        </mxCell>
        <mxCell id="68eKDMC-bbN40P5mF94e-291" value="" style="curved=1;endArrow=none;html=1;rounded=0;endFill=0;" parent="1" edge="1">
          <mxGeometry width="50" height="50" relative="1" as="geometry">
            <mxPoint x="356" y="710" as="sourcePoint" />
            <mxPoint x="336" y="730" as="targetPoint" />
            <Array as="points">
              <mxPoint x="336" y="710" />
            </Array>
          </mxGeometry>
        </mxCell>
        <mxCell id="68eKDMC-bbN40P5mF94e-292" value="" style="curved=1;endArrow=none;html=1;rounded=0;endFill=0;" parent="1" edge="1">
          <mxGeometry width="50" height="50" relative="1" as="geometry">
            <mxPoint x="356" y="710" as="sourcePoint" />
            <mxPoint x="376" y="730" as="targetPoint" />
            <Array as="points">
              <mxPoint x="376" y="710" />
            </Array>
          </mxGeometry>
        </mxCell>
        <mxCell id="68eKDMC-bbN40P5mF94e-293" value="0" style="ellipse;whiteSpace=wrap;html=1;fillColor=default;fontSize=11;flipV=1;" parent="1" vertex="1">
          <mxGeometry x="346" y="700" width="20" height="20" as="geometry" />
        </mxCell>
        <mxCell id="68eKDMC-bbN40P5mF94e-299" value="" style="curved=1;endArrow=none;html=1;rounded=0;endFill=0;" parent="1" edge="1">
          <mxGeometry width="50" height="50" relative="1" as="geometry">
            <mxPoint x="604" y="820" as="sourcePoint" />
            <mxPoint x="584" y="840" as="targetPoint" />
            <Array as="points">
              <mxPoint x="584" y="820" />
            </Array>
          </mxGeometry>
        </mxCell>
        <mxCell id="68eKDMC-bbN40P5mF94e-300" value="" style="curved=1;endArrow=none;html=1;rounded=0;endFill=0;" parent="1" edge="1">
          <mxGeometry width="50" height="50" relative="1" as="geometry">
            <mxPoint x="564" y="860" as="sourcePoint" />
            <mxPoint x="584" y="840" as="targetPoint" />
            <Array as="points">
              <mxPoint x="584" y="860" />
            </Array>
          </mxGeometry>
        </mxCell>
        <mxCell id="68eKDMC-bbN40P5mF94e-301" value="" style="curved=1;endArrow=none;html=1;rounded=0;endFill=0;" parent="1" edge="1">
          <mxGeometry width="50" height="50" relative="1" as="geometry">
            <mxPoint x="624" y="820" as="sourcePoint" />
            <mxPoint x="644" y="840" as="targetPoint" />
            <Array as="points">
              <mxPoint x="644" y="820" />
            </Array>
          </mxGeometry>
        </mxCell>
        <mxCell id="68eKDMC-bbN40P5mF94e-302" value="" style="curved=1;endArrow=none;html=1;rounded=0;endFill=0;" parent="1" edge="1">
          <mxGeometry width="50" height="50" relative="1" as="geometry">
            <mxPoint x="664" y="860" as="sourcePoint" />
            <mxPoint x="644" y="840" as="targetPoint" />
            <Array as="points">
              <mxPoint x="644" y="860" />
            </Array>
          </mxGeometry>
        </mxCell>
        <mxCell id="68eKDMC-bbN40P5mF94e-303" value="" style="curved=1;endArrow=none;html=1;rounded=0;endFill=0;" parent="1" edge="1">
          <mxGeometry width="50" height="50" relative="1" as="geometry">
            <mxPoint x="604" y="900" as="sourcePoint" />
            <mxPoint x="584" y="880" as="targetPoint" />
            <Array as="points">
              <mxPoint x="584" y="900" />
            </Array>
          </mxGeometry>
        </mxCell>
        <mxCell id="68eKDMC-bbN40P5mF94e-304" value="" style="curved=1;endArrow=none;html=1;rounded=0;endFill=0;" parent="1" edge="1">
          <mxGeometry width="50" height="50" relative="1" as="geometry">
            <mxPoint x="624" y="900" as="sourcePoint" />
            <mxPoint x="644" y="880" as="targetPoint" />
            <Array as="points">
              <mxPoint x="644" y="900" />
            </Array>
          </mxGeometry>
        </mxCell>
        <mxCell id="68eKDMC-bbN40P5mF94e-305" value="" style="curved=1;endArrow=none;html=1;rounded=0;endFill=0;" parent="1" edge="1">
          <mxGeometry width="50" height="50" relative="1" as="geometry">
            <mxPoint x="564" y="860" as="sourcePoint" />
            <mxPoint x="584" y="880" as="targetPoint" />
            <Array as="points">
              <mxPoint x="584" y="860" />
            </Array>
          </mxGeometry>
        </mxCell>
        <mxCell id="68eKDMC-bbN40P5mF94e-306" value="" style="curved=1;endArrow=none;html=1;rounded=0;endFill=0;" parent="1" edge="1">
          <mxGeometry width="50" height="50" relative="1" as="geometry">
            <mxPoint x="664" y="860" as="sourcePoint" />
            <mxPoint x="644" y="880" as="targetPoint" />
            <Array as="points">
              <mxPoint x="644" y="860" />
            </Array>
          </mxGeometry>
        </mxCell>
        <mxCell id="I69gD_4dZlkaCYN15ihD-14" value="Gas" style="ellipse;whiteSpace=wrap;html=1;fillColor=default;fontSize=11;" parent="1" vertex="1">
          <mxGeometry x="594" y="810" width="40" height="20" as="geometry" />
        </mxCell>
        <mxCell id="I69gD_4dZlkaCYN15ihD-16" value="Gravity" style="ellipse;whiteSpace=wrap;html=1;fillColor=default;fontSize=11;" parent="1" vertex="1">
          <mxGeometry x="594" y="890" width="40" height="20" as="geometry" />
        </mxCell>
        <mxCell id="68eKDMC-bbN40P5mF94e-307" value="Speed" style="text;html=1;align=left;verticalAlign=middle;whiteSpace=wrap;rounded=0;" parent="1" vertex="1">
          <mxGeometry x="560" y="720" width="90" height="30" as="geometry" />
        </mxCell>
        <mxCell id="68eKDMC-bbN40P5mF94e-308" value="" style="endArrow=none;html=1;rounded=0;" parent="1" edge="1">
          <mxGeometry width="50" height="50" relative="1" as="geometry">
            <mxPoint x="560" y="750" as="sourcePoint" />
            <mxPoint x="760" y="750" as="targetPoint" />
          </mxGeometry>
        </mxCell>
        <mxCell id="68eKDMC-bbN40P5mF94e-309" value="&amp;amp;" style="ellipse;whiteSpace=wrap;html=1;fillColor=default;fontSize=11;flipV=1;" parent="1" vertex="1">
          <mxGeometry x="650" y="740" width="20" height="20" as="geometry" />
        </mxCell>
        <mxCell id="68eKDMC-bbN40P5mF94e-310" value="" style="curved=1;endArrow=none;html=1;rounded=0;endFill=0;" parent="1" edge="1">
          <mxGeometry width="50" height="50" relative="1" as="geometry">
            <mxPoint x="680" y="750" as="sourcePoint" />
            <mxPoint x="700" y="770" as="targetPoint" />
            <Array as="points">
              <mxPoint x="700" y="750" />
            </Array>
          </mxGeometry>
        </mxCell>
        <mxCell id="68eKDMC-bbN40P5mF94e-311" value="" style="curved=1;endArrow=none;html=1;rounded=0;endFill=0;" parent="1" edge="1">
          <mxGeometry width="50" height="50" relative="1" as="geometry">
            <mxPoint x="720" y="820" as="sourcePoint" />
            <mxPoint x="700" y="800" as="targetPoint" />
            <Array as="points">
              <mxPoint x="700" y="820" />
            </Array>
          </mxGeometry>
        </mxCell>
        <mxCell id="68eKDMC-bbN40P5mF94e-312" value="" style="endArrow=none;html=1;rounded=0;" parent="1" edge="1">
          <mxGeometry width="50" height="50" relative="1" as="geometry">
            <mxPoint x="700" y="770" as="sourcePoint" />
            <mxPoint x="700" y="800" as="targetPoint" />
          </mxGeometry>
        </mxCell>
        <mxCell id="68eKDMC-bbN40P5mF94e-313" value="" style="endArrow=none;html=1;rounded=0;" parent="1" edge="1">
          <mxGeometry width="50" height="50" relative="1" as="geometry">
            <mxPoint x="720" y="820" as="sourcePoint" />
            <mxPoint x="900" y="820" as="targetPoint" />
          </mxGeometry>
        </mxCell>
        <mxCell id="68eKDMC-bbN40P5mF94e-314" value="" style="curved=1;endArrow=none;html=1;rounded=0;endFill=0;" parent="1" edge="1">
          <mxGeometry width="50" height="50" relative="1" as="geometry">
            <mxPoint x="940" y="750" as="sourcePoint" />
            <mxPoint x="920" y="770" as="targetPoint" />
            <Array as="points">
              <mxPoint x="920" y="750" />
            </Array>
          </mxGeometry>
        </mxCell>
        <mxCell id="68eKDMC-bbN40P5mF94e-315" value="" style="curved=1;endArrow=none;html=1;rounded=0;endFill=0;" parent="1" edge="1">
          <mxGeometry width="50" height="50" relative="1" as="geometry">
            <mxPoint x="900" y="820" as="sourcePoint" />
            <mxPoint x="920" y="800" as="targetPoint" />
            <Array as="points">
              <mxPoint x="920" y="820" />
            </Array>
          </mxGeometry>
        </mxCell>
        <mxCell id="68eKDMC-bbN40P5mF94e-316" value="" style="endArrow=none;html=1;rounded=0;" parent="1" edge="1">
          <mxGeometry width="50" height="50" relative="1" as="geometry">
            <mxPoint x="920" y="800" as="sourcePoint" />
            <mxPoint x="920" y="770" as="targetPoint" />
          </mxGeometry>
        </mxCell>
        <mxCell id="68eKDMC-bbN40P5mF94e-317" value="100" style="ellipse;whiteSpace=wrap;html=1;fillColor=default;fontSize=11;flipV=1;" parent="1" vertex="1">
          <mxGeometry x="805" y="810" width="30" height="20" as="geometry" />
        </mxCell>
        <mxCell id="68eKDMC-bbN40P5mF94e-318" value="" style="endArrow=none;html=1;rounded=0;exitX=1;exitY=0.5;exitDx=0;exitDy=0;" parent="1" edge="1">
          <mxGeometry width="50" height="50" relative="1" as="geometry">
            <mxPoint x="750" y="750" as="sourcePoint" />
            <mxPoint x="1040" y="750" as="targetPoint" />
          </mxGeometry>
        </mxCell>
        <mxCell id="68eKDMC-bbN40P5mF94e-319" value="" style="curved=1;endArrow=none;html=1;rounded=0;endFill=0;" parent="1" edge="1">
          <mxGeometry width="50" height="50" relative="1" as="geometry">
            <mxPoint x="830" y="750" as="sourcePoint" />
            <mxPoint x="850" y="770" as="targetPoint" />
            <Array as="points">
              <mxPoint x="850" y="750" />
            </Array>
          </mxGeometry>
        </mxCell>
        <mxCell id="68eKDMC-bbN40P5mF94e-320" value="" style="curved=1;endArrow=none;html=1;rounded=0;endFill=0;" parent="1" edge="1">
          <mxGeometry width="50" height="50" relative="1" as="geometry">
            <mxPoint x="870" y="790" as="sourcePoint" />
            <mxPoint x="850" y="770" as="targetPoint" />
            <Array as="points">
              <mxPoint x="850" y="790" />
            </Array>
          </mxGeometry>
        </mxCell>
        <mxCell id="68eKDMC-bbN40P5mF94e-321" value="" style="curved=1;endArrow=none;html=1;rounded=0;endFill=0;" parent="1" edge="1">
          <mxGeometry width="50" height="50" relative="1" as="geometry">
            <mxPoint x="910" y="750" as="sourcePoint" />
            <mxPoint x="890" y="770" as="targetPoint" />
            <Array as="points">
              <mxPoint x="890" y="750" />
            </Array>
          </mxGeometry>
        </mxCell>
        <mxCell id="68eKDMC-bbN40P5mF94e-322" value="" style="curved=1;endArrow=none;html=1;rounded=0;endFill=0;" parent="1" edge="1">
          <mxGeometry width="50" height="50" relative="1" as="geometry">
            <mxPoint x="870" y="790" as="sourcePoint" />
            <mxPoint x="890" y="770" as="targetPoint" />
            <Array as="points">
              <mxPoint x="890" y="790" />
            </Array>
          </mxGeometry>
        </mxCell>
        <mxCell id="68eKDMC-bbN40P5mF94e-323" value="&lt;font style=&quot;font-size: 11px;&quot;&gt;Digit&lt;/font&gt;" style="rounded=1;whiteSpace=wrap;html=1;" parent="1" vertex="1">
          <mxGeometry x="850" y="780" width="40" height="20" as="geometry" />
        </mxCell>
        <mxCell id="68eKDMC-bbN40P5mF94e-324" value="" style="curved=1;endArrow=none;html=1;rounded=0;endFill=0;" parent="1" edge="1">
          <mxGeometry width="50" height="50" relative="1" as="geometry">
            <mxPoint x="830" y="750" as="sourcePoint" />
            <mxPoint x="850" y="730" as="targetPoint" />
            <Array as="points">
              <mxPoint x="850" y="750" />
            </Array>
          </mxGeometry>
        </mxCell>
        <mxCell id="68eKDMC-bbN40P5mF94e-325" value="" style="curved=1;endArrow=none;html=1;rounded=0;endFill=0;" parent="1" edge="1">
          <mxGeometry width="50" height="50" relative="1" as="geometry">
            <mxPoint x="910" y="750" as="sourcePoint" />
            <mxPoint x="890" y="730" as="targetPoint" />
            <Array as="points">
              <mxPoint x="890" y="750" />
            </Array>
          </mxGeometry>
        </mxCell>
        <mxCell id="68eKDMC-bbN40P5mF94e-326" value="" style="curved=1;endArrow=none;html=1;rounded=0;endFill=0;" parent="1" edge="1">
          <mxGeometry width="50" height="50" relative="1" as="geometry">
            <mxPoint x="870" y="710" as="sourcePoint" />
            <mxPoint x="850" y="730" as="targetPoint" />
            <Array as="points">
              <mxPoint x="850" y="710" />
            </Array>
          </mxGeometry>
        </mxCell>
        <mxCell id="68eKDMC-bbN40P5mF94e-327" value="" style="curved=1;endArrow=none;html=1;rounded=0;endFill=0;" parent="1" edge="1">
          <mxGeometry width="50" height="50" relative="1" as="geometry">
            <mxPoint x="870" y="710" as="sourcePoint" />
            <mxPoint x="890" y="730" as="targetPoint" />
            <Array as="points">
              <mxPoint x="890" y="710" />
            </Array>
          </mxGeometry>
        </mxCell>
        <mxCell id="68eKDMC-bbN40P5mF94e-328" value="0" style="ellipse;whiteSpace=wrap;html=1;fillColor=default;fontSize=11;flipV=1;" parent="1" vertex="1">
          <mxGeometry x="860" y="700" width="20" height="20" as="geometry" />
        </mxCell>
        <mxCell id="68eKDMC-bbN40P5mF94e-329" value="" style="curved=1;endArrow=none;html=1;rounded=0;endFill=0;" parent="1" edge="1">
          <mxGeometry width="50" height="50" relative="1" as="geometry">
            <mxPoint x="700" y="750" as="sourcePoint" />
            <mxPoint x="720" y="730" as="targetPoint" />
            <Array as="points">
              <mxPoint x="720" y="750" />
            </Array>
          </mxGeometry>
        </mxCell>
        <mxCell id="68eKDMC-bbN40P5mF94e-330" value="" style="curved=1;endArrow=none;html=1;rounded=0;endFill=0;" parent="1" edge="1">
          <mxGeometry width="50" height="50" relative="1" as="geometry">
            <mxPoint x="740" y="710" as="sourcePoint" />
            <mxPoint x="720" y="730" as="targetPoint" />
            <Array as="points">
              <mxPoint x="720" y="710" />
            </Array>
          </mxGeometry>
        </mxCell>
        <mxCell id="68eKDMC-bbN40P5mF94e-331" value="" style="curved=1;endArrow=none;html=1;rounded=0;endFill=0;" parent="1" edge="1">
          <mxGeometry width="50" height="50" relative="1" as="geometry">
            <mxPoint x="740" y="710" as="sourcePoint" />
            <mxPoint x="760" y="700" as="targetPoint" />
            <Array as="points">
              <mxPoint x="760" y="710" />
            </Array>
          </mxGeometry>
        </mxCell>
        <mxCell id="68eKDMC-bbN40P5mF94e-332" value="" style="curved=1;endArrow=none;html=1;rounded=0;endFill=0;" parent="1" edge="1">
          <mxGeometry width="50" height="50" relative="1" as="geometry">
            <mxPoint x="770" y="690" as="sourcePoint" />
            <mxPoint x="760" y="700" as="targetPoint" />
            <Array as="points">
              <mxPoint x="760" y="690" />
            </Array>
          </mxGeometry>
        </mxCell>
        <mxCell id="68eKDMC-bbN40P5mF94e-333" value="" style="endArrow=none;html=1;rounded=0;" parent="1" edge="1">
          <mxGeometry width="50" height="50" relative="1" as="geometry">
            <mxPoint x="770" y="690" as="sourcePoint" />
            <mxPoint x="900" y="690" as="targetPoint" />
          </mxGeometry>
        </mxCell>
        <mxCell id="68eKDMC-bbN40P5mF94e-334" value="" style="curved=1;endArrow=none;html=1;rounded=0;endFill=0;" parent="1" edge="1">
          <mxGeometry width="50" height="50" relative="1" as="geometry">
            <mxPoint x="900" y="690" as="sourcePoint" />
            <mxPoint x="920" y="710" as="targetPoint" />
            <Array as="points">
              <mxPoint x="920" y="690" />
            </Array>
          </mxGeometry>
        </mxCell>
        <mxCell id="68eKDMC-bbN40P5mF94e-335" value="" style="curved=1;endArrow=none;html=1;rounded=0;endFill=0;" parent="1" edge="1">
          <mxGeometry width="50" height="50" relative="1" as="geometry">
            <mxPoint x="940" y="750" as="sourcePoint" />
            <mxPoint x="920" y="730" as="targetPoint" />
            <Array as="points">
              <mxPoint x="920" y="750" />
            </Array>
          </mxGeometry>
        </mxCell>
        <mxCell id="68eKDMC-bbN40P5mF94e-336" value="" style="endArrow=none;html=1;rounded=0;" parent="1" edge="1">
          <mxGeometry width="50" height="50" relative="1" as="geometry">
            <mxPoint x="920" y="730" as="sourcePoint" />
            <mxPoint x="920" y="710" as="targetPoint" />
          </mxGeometry>
        </mxCell>
        <mxCell id="68eKDMC-bbN40P5mF94e-337" value="0" style="ellipse;whiteSpace=wrap;html=1;fillColor=default;fontSize=11;flipV=1;" parent="1" vertex="1">
          <mxGeometry x="730" y="700" width="20" height="20" as="geometry" />
        </mxCell>
        <mxCell id="68eKDMC-bbN40P5mF94e-338" value="&lt;font style=&quot;font-size: 11px;&quot;&gt;Digit&lt;/font&gt;" style="rounded=1;whiteSpace=wrap;html=1;" parent="1" vertex="1">
          <mxGeometry x="770" y="740" width="40" height="20" as="geometry" />
        </mxCell>
        <mxCell id="68eKDMC-bbN40P5mF94e-339" value="*" style="ellipse;whiteSpace=wrap;html=1;fillColor=default;fontSize=11;flipV=1;" parent="1" vertex="1">
          <mxGeometry x="534" y="850" width="20" height="20" as="geometry" />
        </mxCell>
        <mxCell id="68eKDMC-bbN40P5mF94e-341" value="" style="endArrow=none;html=1;rounded=0;" parent="1" edge="1">
          <mxGeometry width="50" height="50" relative="1" as="geometry">
            <mxPoint x="647.5" y="310" as="sourcePoint" />
            <mxPoint x="728.5" y="310" as="targetPoint" />
          </mxGeometry>
        </mxCell>
        <mxCell id="68eKDMC-bbN40P5mF94e-92" value="." style="ellipse;whiteSpace=wrap;html=1;fillColor=default;fontSize=11;flipV=1;" parent="1" vertex="1">
          <mxGeometry x="679.5" y="300" width="20" height="20" as="geometry" />
        </mxCell>
        <mxCell id="68eKDMC-bbN40P5mF94e-342" value="simulationSaveFile" style="text;html=1;align=left;verticalAlign=middle;whiteSpace=wrap;rounded=0;" parent="1" vertex="1">
          <mxGeometry x="40" y="-150" width="90" height="30" as="geometry" />
        </mxCell>
        <mxCell id="68eKDMC-bbN40P5mF94e-343" value="" style="endArrow=none;html=1;rounded=0;" parent="1" edge="1">
          <mxGeometry width="50" height="50" relative="1" as="geometry">
            <mxPoint x="40" y="-120.21000000000004" as="sourcePoint" />
            <mxPoint x="800" y="-120" as="targetPoint" />
          </mxGeometry>
        </mxCell>
        <mxCell id="68eKDMC-bbN40P5mF94e-345" value="&lt;span style=&quot;text-align: left;&quot;&gt;particlePos&lt;/span&gt;" style="rounded=1;whiteSpace=wrap;html=1;" parent="1" vertex="1">
          <mxGeometry x="159" y="-130" width="76" height="20" as="geometry" />
        </mxCell>
        <mxCell id="68eKDMC-bbN40P5mF94e-347" value="&lt;span style=&quot;text-align: left;&quot;&gt;particleVel&lt;/span&gt;" style="rounded=1;whiteSpace=wrap;html=1;" parent="1" vertex="1">
          <mxGeometry x="254" y="-130" width="76" height="20" as="geometry" />
        </mxCell>
        <mxCell id="68eKDMC-bbN40P5mF94e-348" value="&lt;div style=&quot;text-align: left;&quot;&gt;Density&lt;/div&gt;" style="rounded=1;whiteSpace=wrap;html=1;" parent="1" vertex="1">
          <mxGeometry x="347" y="-130" width="53" height="20" as="geometry" />
        </mxCell>
        <mxCell id="68eKDMC-bbN40P5mF94e-349" value="&lt;span style=&quot;text-align: left;&quot;&gt;Gravity&lt;/span&gt;" style="rounded=1;whiteSpace=wrap;html=1;" parent="1" vertex="1">
          <mxGeometry x="420" y="-130" width="50" height="20" as="geometry" />
        </mxCell>
        <mxCell id="68eKDMC-bbN40P5mF94e-350" value="&lt;span style=&quot;text-align: left;&quot;&gt;Magnitude&lt;/span&gt;" style="rounded=1;whiteSpace=wrap;html=1;" parent="1" vertex="1">
          <mxGeometry x="490" y="-130" width="70" height="20" as="geometry" />
        </mxCell>
        <mxCell id="68eKDMC-bbN40P5mF94e-352" value="&lt;span style=&quot;text-align: left;&quot;&gt;Speed&lt;/span&gt;" style="rounded=1;whiteSpace=wrap;html=1;" parent="1" vertex="1">
          <mxGeometry x="580" y="-130" width="70" height="20" as="geometry" />
        </mxCell>
        <mxCell id="68eKDMC-bbN40P5mF94e-353" value="&lt;div style=&quot;text-align: left;&quot;&gt;&lt;span style=&quot;background-color: initial;&quot;&gt;simulationType&lt;/span&gt;&lt;/div&gt;" style="rounded=1;whiteSpace=wrap;html=1;" parent="1" vertex="1">
          <mxGeometry x="670" y="-130" width="90" height="20" as="geometry" />
        </mxCell>
        <mxCell id="68eKDMC-bbN40P5mF94e-355" value="Coordinate Group" style="text;html=1;align=left;verticalAlign=middle;whiteSpace=wrap;rounded=0;" parent="1" vertex="1">
          <mxGeometry x="357" y="-52" width="121.5" height="30" as="geometry" />
        </mxCell>
        <mxCell id="68eKDMC-bbN40P5mF94e-357" value="Velocity Group" style="text;html=1;align=left;verticalAlign=middle;whiteSpace=wrap;rounded=0;" parent="1" vertex="1">
          <mxGeometry x="353.5" y="203" width="121.5" height="30" as="geometry" />
        </mxCell>
        <mxCell id="68eKDMC-bbN40P5mF94e-360" value="Slider Variables Group" style="text;html=1;align=left;verticalAlign=middle;whiteSpace=wrap;rounded=0;" parent="1" vertex="1">
          <mxGeometry x="24.25" y="490" width="135.75" height="30" as="geometry" />
        </mxCell>
        <mxCell id="68eKDMC-bbN40P5mF94e-361" value="" style="rounded=0;whiteSpace=wrap;html=1;fillColor=none;dashed=1;" parent="1" vertex="1">
          <mxGeometry x="18.5" y="19" width="320" height="281" as="geometry" />
        </mxCell>
        <mxCell id="68eKDMC-bbN40P5mF94e-362" value="Digit Group" style="text;html=1;align=left;verticalAlign=middle;whiteSpace=wrap;rounded=0;" parent="1" vertex="1">
          <mxGeometry x="18.5" y="-11" width="121.5" height="30" as="geometry" />
        </mxCell>
        <mxCell id="68eKDMC-bbN40P5mF94e-363" value="" style="rounded=0;whiteSpace=wrap;html=1;fillColor=none;dashed=1;" parent="1" vertex="1">
          <mxGeometry x="18.5" y="-161" width="801.5" height="81" as="geometry" />
        </mxCell>
        <mxCell id="68eKDMC-bbN40P5mF94e-364" value="Save File Data" style="text;html=1;align=left;verticalAlign=middle;whiteSpace=wrap;rounded=0;" parent="1" vertex="1">
          <mxGeometry x="18.5" y="-191" width="121.5" height="30" as="geometry" />
        </mxCell>
        <mxCell id="9m2mBdf_9D-bGMcGD-Ei-1" value="&#39; &#39;" style="ellipse;whiteSpace=wrap;html=1;fillColor=default;fontSize=11;flipV=1;" parent="1" vertex="1">
          <mxGeometry x="670" y="850" width="20" height="20" as="geometry" />
        </mxCell>
        <mxCell id="9m2mBdf_9D-bGMcGD-Ei-2" value="(space)" style="text;html=1;align=left;verticalAlign=middle;whiteSpace=wrap;rounded=0;" parent="1" vertex="1">
          <mxGeometry x="659" y="870" width="45.5" height="30" as="geometry" />
        </mxCell>
        <mxCell id="9m2mBdf_9D-bGMcGD-Ei-4" value="" style="endArrow=none;html=1;rounded=0;" parent="1" edge="1">
          <mxGeometry width="50" height="50" relative="1" as="geometry">
            <mxPoint x="236" y="590" as="sourcePoint" />
            <mxPoint x="320" y="590" as="targetPoint" />
          </mxGeometry>
        </mxCell>
        <mxCell id="9m2mBdf_9D-bGMcGD-Ei-5" value="" style="endArrow=none;html=1;rounded=0;" parent="1" edge="1">
          <mxGeometry width="50" height="50" relative="1" as="geometry">
            <mxPoint x="320" y="750" as="sourcePoint" />
            <mxPoint x="520" y="750" as="targetPoint" />
          </mxGeometry>
        </mxCell>
        <mxCell id="68eKDMC-bbN40P5mF94e-166" value="&lt;font style=&quot;font-size: 11px;&quot;&gt;Digit&lt;/font&gt;" style="rounded=1;whiteSpace=wrap;html=1;" parent="1" vertex="1">
          <mxGeometry x="254" y="580" width="40" height="20" as="geometry" />
        </mxCell>
        <mxCell id="68eKDMC-bbN40P5mF94e-269" value="&lt;font style=&quot;font-size: 11px;&quot;&gt;Digit&lt;/font&gt;" style="rounded=1;whiteSpace=wrap;html=1;" parent="1" vertex="1">
          <mxGeometry x="254" y="740" width="40" height="20" as="geometry" />
        </mxCell>
        <mxCell id="5RgwJIrfcoMz2KBDrHFr-1" value="," style="ellipse;whiteSpace=wrap;html=1;fillColor=default;fontSize=11;flipV=1;" vertex="1" parent="1">
          <mxGeometry x="675.5" y="169" width="20" height="20" as="geometry" />
        </mxCell>
        <mxCell id="5RgwJIrfcoMz2KBDrHFr-2" value="," style="ellipse;whiteSpace=wrap;html=1;fillColor=default;fontSize=11;flipV=1;" vertex="1" parent="1">
          <mxGeometry x="657.5" y="459" width="20" height="20" as="geometry" />
        </mxCell>
        <mxCell id="5RgwJIrfcoMz2KBDrHFr-4" value="" style="curved=1;endArrow=none;html=1;rounded=0;endFill=0;" edge="1" parent="1">
          <mxGeometry width="50" height="50" relative="1" as="geometry">
            <mxPoint x="765" y="99" as="sourcePoint" />
            <mxPoint x="785" y="79" as="targetPoint" />
            <Array as="points">
              <mxPoint x="784.5" y="99" />
            </Array>
          </mxGeometry>
        </mxCell>
        <mxCell id="5RgwJIrfcoMz2KBDrHFr-5" value="" style="endArrow=none;html=1;rounded=0;" edge="1" parent="1">
          <mxGeometry width="50" height="50" relative="1" as="geometry">
            <mxPoint x="522.5" y="99" as="sourcePoint" />
            <mxPoint x="765" y="99.05" as="targetPoint" />
          </mxGeometry>
        </mxCell>
        <mxCell id="5RgwJIrfcoMz2KBDrHFr-8" value="" style="curved=1;endArrow=none;html=1;rounded=0;endFill=0;" edge="1" parent="1">
          <mxGeometry width="50" height="50" relative="1" as="geometry">
            <mxPoint x="805" y="59.00000000000037" as="sourcePoint" />
            <mxPoint x="785" y="79.00000000000037" as="targetPoint" />
            <Array as="points">
              <mxPoint x="785" y="59.00000000000037" />
            </Array>
          </mxGeometry>
        </mxCell>
        <mxCell id="5RgwJIrfcoMz2KBDrHFr-11" value="" style="curved=1;endArrow=none;html=1;rounded=0;endFill=0;" edge="1" parent="1">
          <mxGeometry width="50" height="50" relative="1" as="geometry">
            <mxPoint x="522.5" y="99" as="sourcePoint" />
            <mxPoint x="502" y="79" as="targetPoint" />
            <Array as="points">
              <mxPoint x="503" y="99" />
            </Array>
          </mxGeometry>
        </mxCell>
        <mxCell id="5RgwJIrfcoMz2KBDrHFr-12" value="" style="curved=1;endArrow=none;html=1;rounded=0;endFill=0;" edge="1" parent="1">
          <mxGeometry width="50" height="50" relative="1" as="geometry">
            <mxPoint x="482.75" y="59.5" as="sourcePoint" />
            <mxPoint x="502" y="79" as="targetPoint" />
            <Array as="points">
              <mxPoint x="502.75" y="59.00000000000037" />
            </Array>
          </mxGeometry>
        </mxCell>
        <mxCell id="I69gD_4dZlkaCYN15ihD-55" value="0" style="ellipse;whiteSpace=wrap;html=1;fillColor=default;fontSize=11;flipV=1;" parent="1" vertex="1">
          <mxGeometry x="644.5" y="90" width="20" height="20" as="geometry" />
        </mxCell>
      </root>
    </mxGraphModel>
  </diagram>
</mxfile>
